<?xml version="1.0" encoding="UTF-8"?>
<svg version="1.1" xmlns="http://www.w3.org/2000/svg" width="100" height="100">
<path d="M0 0 C33 0 66 0 100 0 C100 33 100 66 100 100 C67 100 34 100 0 100 C0 67 0 34 0 0 Z " fill="#1C225E" transform="translate(0,0)"/>
<path d="M0 0 C1.65 0.66 3.3 1.32 5 2 C5 8.6 5 15.2 5 22 C6.65 22 8.3 22 10 22 C10 15.4 10 8.8 10 2 C10.66 2.33 11.32 2.66 12 3 C11.67 9.27 11.34 15.54 11 22 C12.98 22 14.96 22 17 22 C16.86142159 18.87463363 16.71290431 15.74981783 16.5625 12.625 C16.52318359 11.73554687 16.48386719 10.84609375 16.44335938 9.9296875 C16.40146484 9.07890625 16.35957031 8.228125 16.31640625 7.3515625 C16.26141968 6.17327881 16.26141968 6.17327881 16.20532227 4.97119141 C16.109109 2.92476504 16.109109 2.92476504 15 1 C15.99 1.33 16.98 1.66 18 2 C18 2.66 18 3.32 18 4 C22.45909298 3.91946759 26.9167834 3.8065955 31.375 3.6875 C33.28152344 3.65366211 33.28152344 3.65366211 35.2265625 3.61914062 C36.43828125 3.58369141 37.65 3.54824219 38.8984375 3.51171875 C40.01911621 3.48553467 41.13979492 3.45935059 42.29443359 3.43237305 C43.18727051 3.28968994 44.08010742 3.14700684 45 3 C45.66 2.01 46.32 1.02 47 0 C47.99 0.33 48.98 0.66 50 1 C50 1.99 50 2.98 50 4 C51.32 4.33 52.64 4.66 54 5 C52.68 5.66 51.36 6.32 50 7 C50 6.34 50 5.68 50 5 C49.34 5 48.68 5 48 5 C48 10.61 48 16.22 48 22 C50.64 22 53.28 22 56 22 C56 22.33 56 22.66 56 23 C31.25 23 6.5 23 -19 23 C-18.67 22.34 -18.34 21.68 -18 21 C-13.38 21 -8.76 21 -4 21 C-3.67 18.69 -3.34 16.38 -3 14 C-3.66 14 -4.32 14 -5 14 C-5.33 14.99 -5.66 15.98 -6 17 C-6.33 16.34 -6.66 15.68 -7 15 C-8.89533342 14.53476937 -8.89533342 14.53476937 -11.0625 14.375 C-12.361875 14.25125 -13.66125 14.1275 -15 14 C-14.67 13.34 -14.34 12.68 -14 12 C-11.03 12.495 -11.03 12.495 -8 13 C-7.67 12.01 -7.34 11.02 -7 10 C-6.67 10.66 -6.34 11.32 -6 12 C-5.01 12.33 -4.02 12.66 -3 13 C-3 10.36 -3 7.72 -3 5 C-7.64586892 5.48484276 -7.64586892 5.48484276 -12 7 C-11.67 6.01 -11.34 5.02 -11 4 C-8.36 4 -5.72 4 -3 4 C-2.67 3.01 -2.34 2.02 -2 1 C-1.34 0.67 -0.68 0.34 0 0 Z " fill="#787DB1" transform="translate(30,35)"/>
<path d="M0 0 C20.46 0 40.92 0 62 0 C62 1.32 62 2.64 62 4 C60.02 3.67 58.04 3.34 56 3 C56 2.34 56 1.68 56 1 C55.34 1.66 54.68 2.32 54 3 C54 3.99 54 4.98 54 6 C53.34 6 52.68 6 52 6 C52 5.34 52 4.68 52 4 C49.9254644 2.7763932 49.9254644 2.7763932 47 3 C46.01 3 45.02 3 44 3 C43.34 3.99 42.68 4.98 42 6 C42 4.68 42 3.36 42 2 C41.34 2 40.68 2 40 2 C39.67 2.66 39.34 3.32 39 4 C38.505 3.505 38.505 3.505 38 3 C37.34 3.99 36.68 4.98 36 6 C35.01 6.66 34.02 7.32 33 8 C33 6.02 33 4.04 33 2 C32.67 3.32 32.34 4.64 32 6 C28.95613276 6.08226668 26.92824652 5.97608217 24 5 C23.67 4.01 23.34 3.02 23 2 C22.01 2 21.02 2 20 2 C19.67 3.65 19.34 5.3 19 7 C17 5.625 17 5.625 15 4 C15 3.34 15 2.68 15 2 C14.34 2 13.68 2 13 2 C13 3.98 13 5.96 13 8 C12.67 8 12.34 8 12 8 C11.67 6.35 11.34 4.7 11 3 C8.36 2.67 5.72 2.34 3 2 C3 2.66 3 3.32 3 4 C1.02 4 -0.96 4 -3 4 C-2.34 3.67 -1.68 3.34 -1 3 C-0.67 2.01 -0.34 1.02 0 0 Z M17 7 C17.66 8.32 18.32 9.64 19 11 C18.01 11 17.02 11 16 11 C16.33 9.68 16.66 8.36 17 7 Z " fill="#192153" transform="translate(25,58)"/>
<path d="M0 0 C2.64 0 5.28 0 8 0 C8.66 0.66 9.32 1.32 10 2 C10 1.34 10 0.68 10 0 C10.99 0 11.98 0 13 0 C13 5.61 13 11.22 13 17 C8.66666667 17 4.33333333 17 0 17 C0 11.39 0 5.78 0 0 Z " fill="#1E2361" transform="translate(64,40)"/>
<path d="M0 0 C1.65 0.33 3.3 0.66 5 1 C5 7.27 5 13.54 5 20 C3.02 20 1.04 20 -1 20 C-1.02888514 16.85418577 -1.04675923 13.70840531 -1.0625 10.5625 C-1.07087891 9.66466797 -1.07925781 8.76683594 -1.08789062 7.84179688 C-1.09111328 6.98779297 -1.09433594 6.13378906 -1.09765625 5.25390625 C-1.10551147 4.06776733 -1.10551147 4.06776733 -1.11352539 2.85766602 C-1 1 -1 1 0 0 Z " fill="#212562" transform="translate(29,37)"/>
<path d="M0 0 C0.99 0.33 1.98 0.66 3 1 C3 7.6 3 14.2 3 21 C1.35 21 -0.3 21 -2 21 C-2 14.4 -2 7.8 -2 1 C-1.34 0.67 -0.68 0.34 0 0 Z " fill="#1E225D" transform="translate(37,36)"/>
<path d="M0 0 C4 0 8 0 12 0 C12.99 2.64 13.98 5.28 15 8 C10.05 8 5.1 8 0 8 C0 5.36 0 2.72 0 0 Z " fill="#1B2156" transform="translate(48,49)"/>
<path d="M0 0 C0.99 0.33 1.98 0.66 3 1 C3 1.99 3 2.98 3 4 C4.32 4.33 5.64 4.66 7 5 C5.02 5.99 5.02 5.99 3 7 C3 6.34 3 5.68 3 5 C2.34 5 1.68 5 1 5 C1 10.61 1 16.22 1 22 C3.64 22 6.28 22 9 22 C9 22.33 9 22.66 9 23 C3.39 23 -2.22 23 -8 23 C-6.68 22.67 -5.36 22.34 -4 22 C-3.67 21.34 -3.34 20.68 -3 20 C-2.01 20.66 -1.02 21.32 0 22 C0 16.39 0 10.78 0 5 C-0.99 5.495 -0.99 5.495 -2 6 C-1.690625 7.175625 -1.690625 7.175625 -1.375 8.375 C-1.25125 9.24125 -1.1275 10.1075 -1 11 C-1.66 11.66 -2.32 12.32 -3 13 C-4.84974093 7.80310881 -4.84974093 7.80310881 -5 5 C-2.625 2 -2.625 2 0 0 Z " fill="#7B80B5" transform="translate(77,35)"/>
<path d="M0 0 C0 2.64 0 5.28 0 8 C-0.639375 7.814375 -1.27875 7.62875 -1.9375 7.4375 C-2.9584375 7.2209375 -2.9584375 7.2209375 -4 7 C-4.33 7.33 -4.66 7.66 -5 8 C-6.99958364 8.04080783 -9.00045254 8.04254356 -11 8 C-10.6875 5.125 -10.6875 5.125 -10 2 C-6.3558226 -0.4294516 -4.28758728 -0.16179575 0 0 Z " fill="#20255D" transform="translate(27,40)"/>
<path d="M0 0 C2.75566251 2.75566251 2.45934233 5.21539633 3 9 C3.66 9.66 4.32 10.32 5 11 C5.125 14.125 5.125 14.125 5 17 C4.01 17 3.02 17 2 17 C2.33 15.35 2.66 13.7 3 12 C1.10820797 11.3185177 1.10820797 11.3185177 -1 11 C-1.66 11.66 -2.32 12.32 -3 13 C-4.31626692 9.38026598 -5 6.90432869 -5 3 C-2.5 1.25 -2.5 1.25 0 0 Z " fill="#393F79" transform="translate(84,39)"/>
<path d="M0 0 C0 6.6 0 13.2 0 20 C-5.61 20 -11.22 20 -17 20 C-16.67 19.34 -16.34 18.68 -16 18 C-11.38 18 -6.76 18 -2 18 C-1.67 15.69 -1.34 13.38 -1 11 C-1.66 11 -2.32 11 -3 11 C-3.33 11.99 -3.66 12.98 -4 14 C-4.33 13.34 -4.66 12.68 -5 12 C-6.89533342 11.53476937 -6.89533342 11.53476937 -9.0625 11.375 C-10.361875 11.25125 -11.66125 11.1275 -13 11 C-12.67 10.34 -12.34 9.68 -12 9 C-9.03 9.495 -9.03 9.495 -6 10 C-5.67 9.01 -5.34 8.02 -5 7 C-4.67 7.66 -4.34 8.32 -4 9 C-3.01 9.33 -2.02 9.66 -1 10 C-1 7.36 -1 4.72 -1 2 C-5.64586892 2.48484276 -5.64586892 2.48484276 -10 4 C-9.67 3.01 -9.34 2.02 -9 1 C-1.125 0 -1.125 0 0 0 Z " fill="#7C83B6" transform="translate(28,38)"/>
<path d="M0 0 C0 2.64 0 5.28 0 8 C-3.3 8 -6.6 8 -10 8 C-9.64505955 5.37344067 -9.27538036 3.42031739 -7.8125 1.1875 C-5.20638339 -0.51995571 -3.0400645 -0.20267097 0 0 Z " fill="#2C316B" transform="translate(63,40)"/>
<path d="M0 0 C0.99 0 1.98 0 3 0 C3 5.61 3 11.22 3 17 C-2.11903304 14.95238679 -2.71757872 14.56484257 -5 10 C-3.02 9.34 -1.04 8.68 1 8 C0.67 5.36 0.34 2.72 0 0 Z " fill="#3E4279" transform="translate(74,40)"/>
<path d="M0 0 C2.97 0.33 5.94 0.66 9 1 C8.25 3.4375 8.25 3.4375 7 6 C4.50523949 7.04618989 2.73143089 7 0 7 C0 4.69 0 2.38 0 0 Z " fill="#242961" transform="translate(48,49)"/>
<path d="M0 0 C2.125 0.9375 2.125 0.9375 4 2 C3.67 3.65 3.34 5.3 3 7 C1.02 7 -0.96 7 -3 7 C-2.625 4.0625 -2.625 4.0625 -2 1 C-1.34 0.67 -0.68 0.34 0 0 Z " fill="#4D528C" transform="translate(19,41)"/>
<path d="M0 0 C2.64 0 5.28 0 8 0 C8.33 1.32 8.66 2.64 9 4 C7.68 4 6.36 4 5 4 C3.65835921 4.2981424 2.32148827 4.62243192 1 5 C0.67 3.35 0.34 1.7 0 0 Z " fill="#444B7E" transform="translate(28,60)"/>
<path d="M0 0 C1.65 0 3.3 0 5 0 C4.67 2.31 4.34 4.62 4 7 C2.68 7.33 1.36 7.66 0 8 C0 5.36 0 2.72 0 0 Z " fill="#1F2360" transform="translate(48,40)"/>
<path d="M0 0 C0.99 0 1.98 0 3 0 C2.67 1.32 2.34 2.64 2 4 C2.99 4 3.98 4 5 4 C5 5.65 5 7.3 5 9 C3.35 9 1.7 9 0 9 C0 6.03 0 3.06 0 0 Z " fill="#1B2157" transform="translate(28,48)"/>
<path d="M0 0 C2.475 0.99 2.475 0.99 5 2 C5 8.6 5 15.2 5 22 C4.67 22 4.34 22 4 22 C3.67 15.73 3.34 9.46 3 3 C2.34 2.67 1.68 2.34 1 2 C0.67 2.66 0.34 3.32 0 4 C-0.99 3.34 -1.98 2.68 -3 2 C-2.01 1.34 -1.02 0.68 0 0 Z " fill="#676CA5" transform="translate(30,35)"/>
<path d="M0 0 C2.0625 0.4375 2.0625 0.4375 4 1 C4 1.99 4 2.98 4 4 C4.66 4 5.32 4 6 4 C6.33 3.01 6.66 2.02 7 1 C6.67 2.65 6.34 4.3 6 6 C4.02 6 2.04 6 0 6 C-0.38218767 4.34385343 -0.71395102 2.67542976 -1 1 C-0.67 0.67 -0.34 0.34 0 0 Z " fill="#3F4677" transform="translate(45,59)"/>
<path d="M0 0 C0.66 0.33 1.32 0.66 2 1 C2 3.31 2 5.62 2 8 C-0.62187494 6.95125002 -1.79371361 6.35068687 -3.25 3.875 C-3.4975 3.25625 -3.745 2.6375 -4 2 C-2.125 0.9375 -2.125 0.9375 0 0 Z " fill="#1C2357" transform="translate(75,49)"/>
<path d="M0 0 C0 2.64 0 5.28 0 8 C-1.32 7.67 -2.64 7.34 -4 7 C-4.6875 5.1875 -4.6875 5.1875 -5 3 C-3.38441968 0.84589291 -2.74502455 0 0 0 Z " fill="#20255C" transform="translate(63,40)"/>
<path d="M0 0 C0.99 0.33 1.98 0.66 3 1 C2 4 2 4 -0.0625 5.1875 C-0.701875 5.455625 -1.34125 5.72375 -2 6 C-1.79375 6.78375 -1.5875 7.5675 -1.375 8.375 C-1.189375 9.674375 -1.189375 9.674375 -1 11 C-1.66 11.66 -2.32 12.32 -3 13 C-4.84974093 7.80310881 -4.84974093 7.80310881 -5 5 C-2.625 2 -2.625 2 0 0 Z " fill="#60639A" transform="translate(77,35)"/>
<path d="M0 0 C1.98 0.66 3.96 1.32 6 2 C4.29171079 4.10633718 3.47851584 4.93801608 0.73828125 5.29296875 C-0.06222656 5.25816406 -0.86273438 5.22335938 -1.6875 5.1875 C-2.49574219 5.16042969 -3.30398437 5.13335937 -4.13671875 5.10546875 C-4.75160156 5.07066406 -5.36648437 5.03585938 -6 5 C-5.67 4.34 -5.34 3.68 -5 3 C-3.66666667 2.66666667 -2.33333333 2.33333333 -1 2 C-0.67 1.34 -0.34 0.68 0 0 Z " fill="#424385" transform="translate(41,32)"/>
<path d="M0 0 C1.65 0.33 3.3 0.66 5 1 C5.33 1.99 5.66 2.98 6 4 C3.03 4 0.06 4 -3 4 C-2.01 2.68 -1.02 1.36 0 0 Z " fill="#1A2155" transform="translate(67,53)"/>
<path d="M0 0 C1.7074998 1.28062485 3.37373596 2.61767557 5 4 C5 4.66 5 5.32 5 6 C5.66 6.33 6.32 6.66 7 7 C5.02 7 3.04 7 1 7 C-0.0625 5.1875 -0.0625 5.1875 -1 3 C-0.67 2.01 -0.34 1.02 0 0 Z " fill="#25286A" transform="translate(47,32)"/>
<path d="M0 0 C0.99 0.99 1.98 1.98 3 3 C1.68 4.32 0.36 5.64 -1 7 C-1.66 5.35 -2.32 3.7 -3 2 C-2.01 1.34 -1.02 0.68 0 0 Z " fill="#151F51" transform="translate(32,63)"/>
<path d="M0 0 C0.66 0 1.32 0 2 0 C2.33 2.64 2.66 5.28 3 8 C4.65 8 6.3 8 8 8 C8 8.33 8 8.66 8 9 C6.02 9 4.04 9 2 9 C0.14223235 5.86501708 -0.20140476 3.62528568 0 0 Z " fill="#616795" transform="translate(61,49)"/>
<path d="M0 0 C1.65 1.32 3.3 2.64 5 4 C4.34 4 3.68 4 3 4 C2.67 4.99 2.34 5.98 2 7 C1.67 6.34 1.34 5.68 1 5 C-0.89533342 4.53476937 -0.89533342 4.53476937 -3.0625 4.375 C-4.361875 4.25125 -5.66125 4.1275 -7 4 C-6.67 3.34 -6.34 2.68 -6 2 C-3.03 2.495 -3.03 2.495 0 3 C0 2.01 0 1.02 0 0 Z " fill="#757CAA" transform="translate(22,45)"/>
<path d="M0 0 C0.33 0.99 0.66 1.98 1 3 C2.98 3 4.96 3 7 3 C7 3.33 7 3.66 7 4 C5.88625 4.12375 4.7725 4.2475 3.625 4.375 C-0.03103677 4.6465813 -0.03103677 4.6465813 -2 7 C-2 6.01 -2 5.02 -2 4 C-2.66 3.67 -3.32 3.34 -4 3 C-3.01 2.67 -2.02 2.34 -1 2 C-0.67 1.34 -0.34 0.68 0 0 Z " fill="#747AAA" transform="translate(52,45)"/>
<path d="M0 0 C2.475 0.495 2.475 0.495 5 1 C4.34 2.32 3.68 3.64 3 5 C2.01 4.67 1.02 4.34 0 4 C0 2.68 0 1.36 0 0 Z " fill="#384172" transform="translate(28,60)"/>
<path d="M0 0 C0.99 0.33 1.98 0.66 3 1 C3 1.99 3 2.98 3 4 C1.02 4 -0.96 4 -3 4 C-2.67 3.01 -2.34 2.02 -2 1 C-1.34 0.67 -0.68 0.34 0 0 Z " fill="#1F2360" transform="translate(19,44)"/>
<path d="M0 0 C0.99 0 1.98 0 3 0 C2.67 1.65 2.34 3.3 2 5 C1.01 4.67 0.02 4.34 -1 4 C-0.67 2.68 -0.34 1.36 0 0 Z " fill="#485080" transform="translate(69,60)"/>
</svg>
