<?xml version="1.0" encoding="UTF-8"?>
<svg version="1.1" xmlns="http://www.w3.org/2000/svg" width="512" height="512">
<path d="M0 0 C1.05913605 -0.00861557 2.11827209 -0.01723114 3.20950317 -0.02610779 C6.71958727 -0.04885039 10.22887739 -0.04200745 13.73901367 -0.03295898 C16.18601213 -0.03819495 18.63300857 -0.04447133 21.08000183 -0.05174255 C26.21895815 -0.0621652 31.35763799 -0.05756442 36.49658203 -0.04296875 C43.04869979 -0.02587433 49.59993293 -0.04915137 56.15195179 -0.08445835 C61.21298421 -0.10655029 66.27380942 -0.10496076 71.33487511 -0.09669304 C73.74794159 -0.09587811 76.16102401 -0.10265284 78.57404518 -0.11746407 C96.64923336 -0.21131 111.02930032 0.7438942 125.59448242 12.53344727 C127.17229492 13.67813477 127.17229492 13.67813477 128.78198242 14.84594727 C138.54684944 24.17682019 145.57048306 37.73905403 145.93505859 51.3503418 C145.93459103 53.45570754 145.9180877 55.56111689 145.88745117 57.66625977 C145.88320633 58.78410858 145.87896149 59.9019574 145.87458801 61.05368042 C145.85793001 64.58885821 145.82030158 68.1234447 145.78198242 71.65844727 C145.76691896 74.06989731 145.75323348 76.48135637 145.7409668 78.89282227 C145.7080688 84.77322892 145.65799946 90.65329583 145.59448242 96.53344727 C147.49025024 96.51290283 147.49025024 96.51290283 149.42431641 96.49194336 C156.97365638 96.41013117 163.59396297 99.72223099 169.06323242 104.83032227 C176.45689533 113.05388611 178.17638309 121.76790361 177.90698242 132.54516602 C177.43265607 140.93086057 173.81978719 147.93638426 167.59448242 153.53344727 C160.47891142 158.88435666 154.39424976 160.63262497 145.59448242 160.53344727 C145.60336487 161.15381866 145.61224731 161.77419006 145.62139893 162.4133606 C145.71066582 168.93587931 145.77054196 175.45822139 145.81420898 181.98120117 C145.83418552 184.4077053 145.86137625 186.83416216 145.89624023 189.26049805 C146.26075501 215.30186223 146.26075501 215.30186223 141.59448242 226.53344727 C141.31717285 227.22905762 141.03986328 227.92466797 140.75415039 228.64135742 C136.03531992 239.44317293 127.81846284 249.50203436 117.59448242 255.53344727 C116.93448242 255.53344727 116.27448242 255.53344727 115.59448242 255.53344727 C119.3175582 260.43597071 126.90757133 261.37356232 132.69018555 262.36987305 C136.19617447 262.67102851 138.55332491 261.45778736 141.48901367 259.69750977 C145.22142175 257.63395205 149.42180695 257.19550016 153.59448242 256.53344727 C153.54807617 255.7690332 153.50166992 255.00461914 153.45385742 254.21704102 C152.81940509 235.38740223 160.36419728 217.65651464 172.59448242 203.53344727 C173.19131836 202.74067383 173.7881543 201.94790039 174.40307617 201.13110352 C185.67397766 187.77076575 203.51046393 179.20386181 220.59448242 176.53344727 C224.88448242 176.53344727 229.17448242 176.53344727 233.59448242 176.53344727 C233.59448242 205.90344727 233.59448242 235.27344727 233.59448242 265.53344727 C230.62448242 266.52344727 227.65448242 267.51344727 224.59448242 268.53344727 C219.21500883 273.4991152 218.4489077 279.74261719 217.90698242 286.72094727 C217.98775507 293.78855404 220.82398238 297.21468186 225.26245117 302.47094727 C230.96868186 309.96455675 233.70627865 319.50689756 233.74165344 328.83398438 C233.7523864 330.77723099 233.7523864 330.77723099 233.76333618 332.75973511 C233.7661762 334.19342017 233.76888796 335.62710549 233.77148438 337.06079102 C233.7777514 338.57211462 233.78439842 340.08343669 233.79139709 341.59475708 C233.81240161 346.5534763 233.82279225 351.51219571 233.83276367 356.47094727 C233.83681179 358.17837541 233.84092873 359.88580339 233.84511375 361.5932312 C233.86415306 369.61080535 233.87838989 377.62837032 233.88672572 385.64596272 C233.89651078 394.90439317 233.92286848 404.16258536 233.96322662 413.42093182 C233.99335182 420.57685648 234.00819095 427.73271267 234.01150674 434.88869953 C234.01386024 439.16344597 234.02286031 443.43793747 234.04796791 447.71261597 C234.07119265 451.73132464 234.07550474 455.74960946 234.06520653 459.76836777 C234.06470978 461.2438078 234.07107122 462.71926833 234.08476257 464.19464493 C234.10239676 466.20732293 234.09301775 468.22018381 234.08222961 470.23291016 C234.08461797 471.35967667 234.08700632 472.48644318 234.08946705 473.64735413 C233.4588628 477.32420082 232.54282097 478.2803081 229.59448242 480.53344727 C226.32292241 481.03484392 226.32292241 481.03484392 222.34390545 481.03681183 C221.60863307 481.04262559 220.87336069 481.04843935 220.11580732 481.05442929 C217.63829239 481.06909182 215.16175851 481.05511557 212.68424988 481.04138184 C210.89561797 481.04598832 209.10698985 481.05233953 207.31836969 481.06029081 C202.39253595 481.07704252 197.46701081 481.06871126 192.54117572 481.05634594 C187.23292912 481.0473214 181.92473679 481.06125238 176.61650085 481.07226562 C166.2125608 481.09008434 155.80873595 481.08619563 145.40479132 481.07461506 C136.95003528 481.06559273 128.4953116 481.06435154 120.04055214 481.06871033 C118.83860838 481.06932326 117.63666462 481.06993619 116.39829833 481.0705677 C113.95676657 481.07184657 111.51523482 481.07314342 109.07370309 481.07445806 C86.15969345 481.08587406 63.24574774 481.07273493 40.33174858 481.0512566 C20.66367924 481.03339154 0.99570435 481.0364829 -18.67236328 481.05493164 C-41.49801699 481.07633212 -64.32361458 481.08476812 -87.14927691 481.07248259 C-89.58289793 481.07120836 -92.01651896 481.06995088 -94.45014 481.06871033 C-96.24632838 481.06778467 -96.24632838 481.06778467 -98.07880339 481.06684032 C-106.52342851 481.06338445 -114.96801809 481.06922103 -123.41263771 481.07862854 C-133.70405386 481.08984105 -143.99534797 481.08682445 -154.28675012 481.06550556 C-159.53922957 481.05498409 -164.79150545 481.05089201 -170.04398346 481.06410217 C-174.85111478 481.07600946 -179.65785357 481.06949083 -184.46494921 481.04819196 C-186.20518099 481.04371877 -187.94544584 481.04600822 -189.68565641 481.05569512 C-192.05004904 481.0678482 -194.41309492 481.0553962 -196.77741718 481.03681183 C-198.09097984 481.03616242 -199.40454249 481.03551301 -200.75791007 481.03484392 C-205.31979033 480.4077722 -207.61935603 479.13169649 -211.40551758 476.53344727 C-216.37812436 469.24608311 -217.62250605 460.13311184 -219.53051758 451.64282227 C-219.91760132 449.95608935 -220.30561784 448.26957027 -220.69450378 446.58325195 C-221.72988091 442.08205187 -222.75282224 437.57811601 -223.77282333 433.07341003 C-224.82964329 428.41319957 -225.89583146 423.75513435 -226.96142578 419.09692383 C-228.23967087 413.5073909 -229.51711905 407.91768546 -230.78962708 402.32684326 C-233.24464077 391.54847072 -235.75129764 380.78442533 -238.32348633 370.03344727 C-239.15652007 366.52776971 -239.98869392 363.02188887 -240.82080078 359.51599121 C-241.32929895 357.3873886 -241.84284394 355.25998429 -242.36181641 353.13391113 C-249.52240648 323.76605446 -249.52240648 323.76605446 -243.74145508 314.21313477 C-240.03885384 309.55781742 -236.04233328 306.46189611 -230.40551758 304.53344727 C-227.66631603 304.28735161 -227.66631603 304.28735161 -224.64115906 304.29293823 C-223.48996078 304.2901889 -222.33876251 304.28743958 -221.15267944 304.28460693 C-219.89895538 304.29179749 -218.64523132 304.29898804 -217.35351562 304.30639648 C-216.01289376 304.30696095 -214.67227128 304.30664334 -213.33164978 304.30551147 C-209.69977589 304.30493835 -206.06803447 304.31668611 -202.43619132 304.33065939 C-198.6378724 304.34317346 -194.83955034 304.34433778 -191.04121399 304.34671021 C-183.8519099 304.35292298 -176.66266673 304.36933107 -169.47338945 304.38940918 C-161.28722259 304.41177447 -153.1010528 304.4227632 -144.91486299 304.43280005 C-128.07837887 304.45369748 -111.241956 304.48886952 -94.40551758 304.53344727 C-94.10548828 303.75259766 -93.80545898 302.97174805 -93.49633789 302.16723633 C-89.61225865 292.78911484 -79.45050535 285.57883784 -70.40551758 281.53344727 C-67.98958314 280.70534709 -65.58129193 279.91803106 -63.14111328 279.16967773 C-62.43753346 278.952139 -61.73395365 278.73460026 -61.00905323 278.51046944 C-54.18292509 276.42398558 -47.30339508 274.56428363 -40.39740562 272.76296616 C-38.22238857 272.19489182 -36.04899282 271.62094604 -33.87593079 271.04544067 C-27.71232744 269.41359347 -21.54717781 267.78779034 -15.37841797 266.17553711 C-11.57103463 265.18001024 -7.76638999 264.17456364 -3.96332741 263.16266251 C-2.52382128 262.78173136 -1.0833097 262.40457831 0.35820961 262.03133774 C2.36055504 261.5125879 4.35917294 260.98129945 6.35742188 260.44702148 C7.49274857 260.14899628 8.62807526 259.85097107 9.79780579 259.54391479 C12.52794107 258.55748933 13.79962675 257.76516949 15.59448242 255.53344727 C14.8700293 255.28594727 14.14557617 255.03844727 13.39916992 254.78344727 C1.43057308 249.44925369 -6.47140395 236.13859359 -11.40551758 224.53344727 C-14.20620689 216.58999079 -14.8160839 209.2390761 -14.69848633 200.86547852 C-14.69424149 199.70465256 -14.68999664 198.5438266 -14.68562317 197.3478241 C-14.66897832 193.68028476 -14.63135246 190.01331742 -14.59301758 186.34594727 C-14.57795241 183.84270005 -14.56426724 181.33944414 -14.55200195 178.83618164 C-14.51912143 172.73507865 -14.46906567 166.63430385 -14.40551758 160.53344727 C-15.66936279 160.54714355 -16.93320801 160.56083984 -18.23535156 160.57495117 C-25.78469153 160.65676336 -32.40499813 157.34466354 -37.87426758 152.23657227 C-45.26793049 144.01300842 -46.98741824 135.29899092 -46.71801758 124.52172852 C-46.24369123 116.13603396 -42.63082235 109.13051027 -36.40551758 103.53344727 C-29.28994657 98.18253787 -23.20528491 96.43426956 -14.40551758 96.53344727 C-14.41075439 95.28321777 -14.41599121 94.03298828 -14.42138672 92.74487305 C-14.43960842 88.06698331 -14.45101185 83.38909666 -14.46044922 78.71118164 C-14.46545042 76.69392365 -14.47225351 74.67666924 -14.48095703 72.65942383 C-14.49320845 69.74502678 -14.49878817 66.83067804 -14.50317383 63.91625977 C-14.50833511 63.02730011 -14.5134964 62.13834045 -14.51881409 61.22244263 C-14.51927574 55.96515552 -14.19848665 50.86461181 -13.5231781 45.64889526 C-13.26458245 43.34221299 -13.26458245 43.34221299 -14.40551758 40.53344727 C-14.53816632 37.8491857 -14.6176765 35.19164586 -14.64379883 32.50610352 C-14.65187057 31.72077744 -14.65994232 30.93545135 -14.66825867 30.12632751 C-14.68207771 28.46623937 -14.6928096 26.80612308 -14.70068359 25.14599609 C-14.71793167 22.60858569 -14.76183883 20.07246701 -14.8059082 17.53540039 C-14.81603271 15.92147766 -14.82454957 14.30754389 -14.83129883 12.69360352 C-14.84880692 11.93620377 -14.866315 11.17880402 -14.88435364 10.39845276 C-14.87146595 7.26740982 -14.70816206 5.01595852 -13.02648926 2.33483887 C-8.91256237 -0.49265957 -4.88092599 -0.0318528 0 0 Z " fill="#000000" transform="translate(262.405517578125,15.466552734375)"/>
<path d="M0 0 C1.11971158 -0.0083016 1.11971158 -0.0083016 2.2620436 -0.0167709 C4.76492839 -0.0303909 7.26681829 -0.01540147 9.76968384 -0.00050354 C11.56347579 -0.00428631 13.35726482 -0.00978599 15.15104675 -0.01687622 C20.0251481 -0.03085569 24.89889741 -0.01964268 29.77297926 -0.00316501 C34.8724391 0.01067359 39.97187826 0.00422661 45.0713501 0.0007019 C53.63768187 -0.00200165 62.20387366 0.01148621 70.77017212 0.03465271 C80.67223152 0.06124637 90.57405657 0.06301546 100.47613943 0.05126435 C110.00050756 0.04048106 119.52479096 0.04667907 129.04915237 0.06081963 C133.10245391 0.06657635 137.15569338 0.06649915 141.20899582 0.06175423 C145.98444295 0.0569784 150.75963387 0.06711133 155.53503227 0.08870888 C157.28696898 0.09426927 159.03893034 0.0947489 160.79086876 0.08975601 C163.18418619 0.08379118 165.57672349 0.09633086 167.9699707 0.11352539 C168.66180871 0.10751535 169.35364672 0.1015053 170.06644952 0.09531313 C174.62168213 0.15474034 177.7446868 1.10433489 181.61196899 3.50120544 C185.20748816 8.66475474 185.96383218 15.00143755 187.15567017 21.07102966 C187.39019394 22.22948395 187.62471771 23.38793823 187.86634827 24.58149719 C188.50487608 27.74561419 189.13564056 30.91115183 189.76244903 34.07760763 C190.42176319 37.40078985 191.08971703 40.72223683 191.7563324 44.04396057 C192.87444322 49.62273225 193.98539946 55.20289322 195.0921936 60.78392029 C196.36900299 67.22174744 197.6574869 73.6571542 198.95219439 80.09140384 C200.20067842 86.29752358 201.44043598 92.50535686 202.6764164 98.71397781 C203.20102932 101.34832466 203.72871873 103.98202679 204.25896263 106.61524582 C204.99895897 110.29958372 205.72900028 113.98575968 206.45645142 117.67259216 C206.67615601 118.75649231 206.8958606 119.84039246 207.1222229 120.95713806 C209.84930664 134.92382624 209.84930664 134.92382624 207.62368774 139.55979919 C204.27686726 143.04483645 202.38942865 144.42472644 197.49251747 144.63542652 C195.54851838 144.64183674 195.54851838 144.64183674 193.56524658 144.64837646 C192.84342237 144.65205315 192.12159816 144.65572984 191.37790048 144.65951794 C188.95282371 144.67055423 186.52778978 144.67439849 184.10269165 144.6782074 C182.36654016 144.68447197 180.63039001 144.69111876 178.89424133 144.69812012 C174.17316411 144.71552746 169.45209701 144.72608065 164.73099566 144.73432565 C161.7826002 144.73947522 158.8342079 144.7455509 155.88581467 144.75183678 C146.66420901 144.77088611 137.44261137 144.78511912 128.22098982 144.79344875 C117.56968076 144.80322832 106.91857911 144.82956769 96.26734316 144.86994964 C88.03797146 144.90008129 79.80865933 144.91491472 71.57923353 144.91822976 C66.66226272 144.92058314 61.74551357 144.9295813 56.82860184 144.95469093 C52.20418709 144.97792583 47.58014069 144.98222344 42.95568275 144.97192955 C41.25813257 144.971433 39.56056453 144.97778847 37.86306953 144.9914856 C35.54582212 145.00913806 33.22990628 145.00213245 30.91265869 144.98895264 C29.61590525 144.99134099 28.3191518 144.99372934 26.9831028 144.99619007 C23.04686444 144.41823097 21.4209776 143.25659526 18.61196899 140.50120544 C16.13410475 136.90544691 15.62393891 132.50745779 14.76431274 128.29417419 C14.59198624 127.47423477 14.41965973 126.65429535 14.24211121 125.80950928 C13.86922368 124.03451236 13.49861757 122.25903497 13.1300354 120.48313904 C12.13600575 115.69858759 11.12283506 110.91811314 10.10806274 106.13792419 C9.90043304 105.1592337 9.69280334 104.18054321 9.47888184 103.17219543 C7.47101992 93.75467537 5.30680798 84.3765784 3.11196899 75.00120544 C0.03774951 61.83172802 -2.93435103 48.64318568 -5.78475952 35.42332458 C-6.18216699 33.58071131 -6.58105614 31.73841688 -6.98153687 29.89646912 C-7.53854535 27.33083281 -8.08927311 24.76393004 -8.63803101 22.19651794 C-8.8011377 21.44818695 -8.96424438 20.69985596 -9.1322937 19.92884827 C-9.58446808 17.79112445 -9.99580699 15.65069306 -10.38803101 13.50120544 C-10.54336304 12.70921753 -10.69869507 11.91722961 -10.85873413 11.10124207 C-10.98699585 10.31138916 -11.11525757 9.52153625 -11.24740601 8.70774841 C-11.37083374 7.99730377 -11.49426147 7.28685913 -11.62142944 6.55488586 C-11.38803101 4.50120544 -11.38803101 4.50120544 -9.83519554 2.40417576 C-6.6032951 -0.10902289 -3.92832818 -0.05418878 0 0 Z " fill="#DFDFDD" transform="translate(43.388031005859375,335.49879455566406)"/>
<path d="M0 0 C1.6328125 2.73828125 1.6328125 2.73828125 3.125 6.3125 C10.14130696 21.70763801 22.54444992 30.63150186 37.98046875 36.95703125 C54.52215044 42.67065222 71.18160567 41.2337878 87 34 C91.17260648 31.91369676 95.06781634 29.52063055 99 27 C99 34.26 99 41.52 99 49 C94.8984375 49.1953125 94.8984375 49.1953125 90.796875 49.390625 C87.20892282 50.1723576 86.19622201 51.05820776 84 54 C83.62634037 56.91266743 83.4852435 59.43714679 83.5390625 62.34375 C83.53997894 63.14985718 83.54089539 63.95596436 83.5418396 64.78649902 C83.54787117 66.48777163 83.563604 68.18903383 83.58837891 69.89013672 C83.62487314 72.49095894 83.62939822 75.09035475 83.62890625 77.69140625 C83.63873861 79.34636645 83.65039613 81.00131702 83.6640625 82.65625 C83.66628815 83.43238647 83.66851379 84.20852295 83.67080688 85.00817871 C83.63344429 90.39963291 83.63344429 90.39963291 86 95 C89.04199472 96.29231642 89.04199472 96.29231642 92 97 C93.58235334 114.38214296 95.10829707 131.76931568 96.48690796 149.16891479 C96.6188278 150.8252685 96.75274315 152.48146469 96.88882446 154.13748169 C97.73457686 164.46459821 98.13377037 174.63598137 98 185 C90.41 185 82.82 185 75 185 C74.95101562 183.08574219 74.90203125 181.17148437 74.8515625 179.19921875 C74.77653864 176.69529756 74.70099065 174.19139204 74.625 171.6875 C74.57859375 169.79354492 74.57859375 169.79354492 74.53125 167.86132812 C74.49257813 166.65283203 74.45390625 165.44433594 74.4140625 164.19921875 C74.3826416 163.08377686 74.3512207 161.96833496 74.31884766 160.8190918 C74.194751 157.79631214 74.194751 157.79631214 72 155 C68.46246128 153.82082043 65.60111832 153.83906253 61.86645508 153.79467773 C61.14425278 153.78477814 60.42205048 153.77487854 59.67796326 153.76467896 C57.29185255 153.73310241 54.90572194 153.70832178 52.51953125 153.68359375 C50.86471541 153.6630209 49.20990479 153.64202434 47.55509949 153.62062073 C43.20024847 153.56543425 38.84535029 153.51600987 34.49041748 153.46777344 C30.04630335 153.41753342 25.60225768 153.36186041 21.15820312 153.30664062 C12.43885997 153.19910092 3.71945953 153.09764665 -5 153 C-8.47482412 137.11717751 -11.79054418 121.20784849 -14.98046875 105.265625 C-15.32662392 103.53868699 -15.67282574 101.81175832 -16.01907349 100.08483887 C-17.43948245 92.9967077 -18.85853338 85.90831986 -20.26733398 78.81787109 C-21.14382325 74.40778599 -22.02684398 69.99905141 -22.9140873 65.59111786 C-23.24620963 63.93473411 -23.57592714 62.27786609 -23.90306664 60.62049103 C-24.35783516 58.3176492 -24.82093876 56.01662493 -25.28588867 53.71582031 C-25.41528839 53.04986343 -25.54468811 52.38390656 -25.67800903 51.69776917 C-26.98563026 45.31192274 -28.75693784 38.78549776 -33.0625 33.75 C-33.56910156 33.12609375 -34.07570312 32.5021875 -34.59765625 31.859375 C-43.38090246 25.06128525 -53.53552059 25.34788212 -64.125 25.25 C-65.66930349 25.22178614 -67.21357654 25.19185132 -68.7578125 25.16015625 C-72.50506574 25.08693943 -76.25219326 25.03697445 -80 25 C-72.01288722 16.58950787 -62.75112844 14.1029183 -51.6875 11.5625 C-49.2024407 10.96769547 -46.71806937 10.37000975 -44.234375 9.76953125 C-43.01298828 9.4751416 -41.79160156 9.18075195 -40.53320312 8.87744141 C-35.46626152 7.61910889 -30.45013812 6.20782039 -25.4375 4.75 C-24.58502686 4.50378906 -23.73255371 4.25757813 -22.85424805 4.00390625 C-19.37757244 2.99583303 -15.90686545 1.97188584 -12.44140625 0.92578125 C-11.47074219 0.64089844 -10.50007813 0.35601562 -9.5 0.0625 C-8.7265625 -0.17339844 -7.953125 -0.40929687 -7.15625 -0.65234375 C-4.32814421 -1.10832458 -2.6829038 -1.067952 0 0 Z " fill="#C6AD70" transform="translate(269,295)"/>
<path d="M0 0 C2.37269838 2.94546572 4.6538028 5.87226603 6.734375 9.03125 C7.22679687 9.75957031 7.71921875 10.48789063 8.2265625 11.23828125 C9.23733684 12.73889238 10.23749223 14.24671428 11.2265625 15.76171875 C15.38857872 21.85378912 19.95530965 25.65176988 27 28 C29.32298414 28.11522102 31.64913142 28.16946347 33.97485352 28.19287109 C34.68099289 28.20104858 35.38713226 28.20922607 36.1146698 28.21765137 C38.45274013 28.24246882 40.79074962 28.25901716 43.12890625 28.2734375 C44.33067159 28.28142302 44.33067159 28.28142302 45.55671501 28.28956985 C49.80220456 28.31629305 54.04766488 28.33566553 58.29321289 28.35009766 C61.79380622 28.36340327 65.29381197 28.39119361 68.79418945 28.43212891 C73.03173554 28.48167861 77.26875126 28.50624647 81.50657463 28.51332474 C83.11440763 28.52000267 84.72223041 28.53513374 86.32989693 28.55921555 C95.3387838 28.68640011 103.46954572 28.67937664 111 23 C116.26323383 17.58594068 120.09004939 10.90743401 124.06860352 4.52172852 C125.02143121 2.99900476 126.00754666 1.49719892 127 0 C127.33 0 127.66 0 128 0 C128.06979294 9.71915513 128.12295907 19.43822276 128.15543652 29.15757465 C128.17103128 33.67162804 128.19215516 38.18550881 128.22631836 42.69946289 C128.25913427 47.0631649 128.27689945 51.42670183 128.28463173 55.79051781 C128.29013562 57.44773135 128.30088238 59.1049368 128.31719017 60.76207924 C128.47883527 77.88310785 125.5687686 91.9436267 113.45703125 104.73828125 C104.93729808 112.58077013 93.6901707 117.0390102 82.10888672 117.17700195 C80.69118484 117.19625481 80.69118484 117.19625481 79.24484253 117.21589661 C77.72759079 117.22697701 77.72759079 117.22697701 76.1796875 117.23828125 C75.12524445 117.246353 74.07080139 117.25442474 72.98440552 117.26274109 C70.75361765 117.2765536 68.5228089 117.28728838 66.29199219 117.29516602 C64.02467601 117.30666783 61.75738652 117.32709089 59.49023438 117.35668945 C56.19903321 117.39962859 52.90863498 117.41557296 49.6171875 117.42578125 C48.61783173 117.44328934 47.61847595 117.46079742 46.58883667 117.47883606 C33.83000159 117.44011719 22.24088255 111.9855443 12.8125 103.5 C0.76387635 90.76707318 -0.30310626 75.03433752 -0.1953125 58.49609375 C-0.19157654 56.80501982 -0.18873232 55.1139437 -0.18673706 53.42286682 C-0.17914649 48.99895113 -0.15953795 44.57516938 -0.1373291 40.15130615 C-0.11677144 35.62627982 -0.10771424 31.10123158 -0.09765625 26.57617188 C-0.07628721 17.71738948 -0.04220733 8.85870593 0 0 Z " fill="#784127" transform="translate(264,147)"/>
<path d="M0 0 C0.33 0 0.66 0 1 0 C3.74748863 13.55023786 6.48597027 27.10226937 9.21417999 40.65640259 C10.48130695 46.95031888 11.75128499 53.24363151 13.02783203 59.53564453 C14.26004963 65.60970301 15.48470808 71.68524118 16.70417786 77.76187134 C17.17035476 80.07799372 17.63923604 82.39357351 18.11088562 84.70858765 C18.77188343 87.9553643 19.4231712 91.20395078 20.07226562 94.453125 C20.36681389 95.88272301 20.36681389 95.88272301 20.66731262 97.34120178 C23.24732194 110.40182347 23.24732194 110.40182347 21.01171875 115.05859375 C17.66489826 118.54363101 15.77745966 119.92352099 10.88054848 120.13422108 C8.93654939 120.1406313 8.93654939 120.1406313 6.95327759 120.14717102 C5.87054127 120.15268605 5.87054127 120.15268605 4.76593149 120.1583125 C2.34085471 120.16934879 -0.08417921 120.17319304 -2.50927734 120.17700195 C-4.24542884 120.18326652 -5.98157898 120.18991332 -7.71772766 120.19691467 C-12.43880488 120.21432202 -17.15987198 120.2248752 -21.88097334 120.2331202 C-24.82936879 120.23826978 -27.7777611 120.24434545 -30.72615433 120.25063133 C-39.94775998 120.26968067 -49.16935762 120.28391368 -58.39097917 120.2922433 C-69.04228824 120.30202288 -79.69338988 120.32836225 -90.34462583 120.36874419 C-98.57399753 120.39887585 -106.80330966 120.41370927 -115.03273547 120.41702431 C-119.94970628 120.4193777 -124.86645542 120.42837586 -129.78336716 120.45348549 C-134.40778191 120.47672039 -139.03182831 120.48101799 -143.65628624 120.47072411 C-145.35383642 120.47022756 -147.05140446 120.47658303 -148.74889946 120.49028015 C-151.06614687 120.50793261 -153.38206271 120.500927 -155.6993103 120.48774719 C-156.99606375 120.49013555 -158.29281719 120.4925239 -159.6288662 120.49498463 C-163.58477713 119.91413699 -165.22962056 118.83721046 -168 116 C-168.33 115.01 -168.66 114.02 -169 113 C-167.77373901 112.55684448 -167.77373901 112.55684448 -166.52270508 112.10473633 C-111.16037773 91.99157078 -32.11555766 59.50739533 -1 5 C-0.31560007 2.35317659 -0.31560007 2.35317659 0 0 Z " fill="#D5D5D3" transform="translate(230,360)"/>
<path d="M0 0 C25.08 0 50.16 0 76 0 C79.63 6.93 83.26 13.86 87 21 C91.32018647 27.47405601 91.32018647 27.47405601 95.78515625 33.84765625 C97.46616146 36.24019805 98.75290412 38.39025133 100 41 C96.66418147 46.07795014 93.3192665 51.14973812 89.96582031 56.21606445 C88.82658624 57.9399908 87.68984444 59.66556687 86.55566406 61.39282227 C84.92386709 63.87695453 83.28316443 66.35499303 81.640625 68.83203125 C81.13629944 69.60400345 80.63197388 70.37597565 80.11236572 71.17134094 C75.20454345 78.53539024 75.20454345 78.53539024 72 80 C69.0172822 80.38102224 66.08076187 80.34882002 63.078125 80.29296875 C62.21813904 80.28872391 61.35815308 80.28447906 60.47210693 80.28010559 C57.7310833 80.26334116 54.99080061 80.22569345 52.25 80.1875 C50.38933355 80.17245025 48.52865555 80.15876235 46.66796875 80.14648438 C42.1116946 80.11344499 37.55597284 80.06167833 33 80 C35.19654911 71.47459602 37.86918388 63.15058039 40.6875 54.8125 C41.10322266 53.57435547 41.51894531 52.33621094 41.94726562 51.06054688 C42.96208314 48.03942347 43.97970971 45.0192786 45 42 C44.39164307 41.86867676 43.78328613 41.73735352 43.15649414 41.60205078 C42.35332764 41.42657715 41.55016113 41.25110352 40.72265625 41.0703125 C39.92867432 40.89773926 39.13469238 40.72516602 38.31665039 40.54736328 C35.47706365 39.87644396 32.74495341 38.98536789 30 38 C29.84289551 38.61278809 29.68579102 39.22557617 29.52392578 39.85693359 C27.49743568 47.53678262 25.08087507 55.06564977 22.55615234 62.59228516 C21.86491765 64.65508804 21.18026454 66.72000106 20.49609375 68.78515625 C20.05767726 70.09908706 19.6188895 71.41289405 19.1796875 72.7265625 C18.78507324 73.90814941 18.39045898 75.08973633 17.98388672 76.30712891 C17 79 17 79 16 80 C14.08885087 80.17880383 12.16898013 80.26803583 10.25 80.3125 C9.20328125 80.34988281 8.1565625 80.38726562 7.078125 80.42578125 C2.70694437 79.82113824 0.36774068 77.76619217 -2.32772827 74.28547668 C-3.77012477 72.20127124 -5.15214729 70.08728668 -6.51953125 67.953125 C-7.02296555 67.18192322 -7.52639984 66.41072144 -8.04508972 65.6161499 C-9.64211323 63.16579025 -11.22741565 60.70809559 -12.8125 58.25 C-13.89701991 56.58153274 -14.98229834 54.91355826 -16.06835938 53.24609375 C-18.72105653 49.16971617 -21.36327163 45.08672305 -24 41 C-21.31243235 36.2426315 -18.49683429 31.74462787 -15.375 27.25 C-9.68178931 18.51158359 -4.85745998 9.22917396 0 0 Z " fill="#FBC7A1" transform="translate(290,80)"/>
<path d="M0 0 C0 18.48 0 36.96 0 56 C-3.3 56.66 -6.6 57.32 -10 58 C-19.7050486 62.13891778 -26.09198866 67.89833019 -30.11328125 77.71875 C-31.37998522 82.40611271 -31.39034007 86.97768662 -31.47851562 91.81054688 C-31.64055753 96.24891412 -31.87306126 99.57463972 -35 103 C-38.07421875 103.93359375 -38.07421875 103.93359375 -41.6875 104.4375 C-50.06337986 105.98315206 -54.86231076 108.90624433 -59.9375 115.6875 C-64.43175299 122.90554267 -63.26427746 125.6998844 -64 136 C-79.84 136 -95.68 136 -112 136 C-112 107.86842105 -112 107.86842105 -107 100 C-106.53078125 99.24976563 -106.0615625 98.49953125 -105.578125 97.7265625 C-99.1798642 88.47316381 -90.66874597 83.17569068 -80 80 C-76.61441837 79.50397292 -73.23010313 79.12286495 -69.828125 78.7578125 C-66.92430244 78.31723155 -66.92430244 78.31723155 -65.84033203 76.21972656 C-64.9586373 73.89074094 -64.74687312 72.2061051 -64.7265625 69.7265625 C-64.70907959 68.90881348 -64.69159668 68.09106445 -64.67358398 67.24853516 C-64.65755127 66.38276855 -64.64151855 65.51700195 -64.625 64.625 C-63.91160122 45.51966488 -57.12655465 29.16494153 -43 16 C-30.17395169 5.19410194 -16.70842853 0 0 0 Z " fill="#E9E9E7" transform="translate(496,208)"/>
<path d="M0 0 C12.08333346 -0.0696684 24.16661873 -0.1228967 36.25011253 -0.15543652 C41.86163835 -0.17105804 47.47302621 -0.19223205 53.08447266 -0.22631836 C58.50503511 -0.25903718 63.9254653 -0.27687942 69.34611893 -0.28463173 C71.40886134 -0.2901528 73.47159694 -0.30093388 75.53428268 -0.31719017 C78.43495794 -0.33913093 81.33509429 -0.34195999 84.23583984 -0.34057617 C85.07885651 -0.351362 85.92187317 -0.36214783 86.79043579 -0.3732605 C97.86709077 -0.31649233 108.1204549 3.52594076 116.265625 11.109375 C122.26263432 17.55060723 125.62144621 23.32712096 127 32 C111.97917134 32.09350696 96.95836527 32.16401032 81.93730736 32.20724869 C74.96250037 32.22786011 67.98787439 32.2559532 61.01318359 32.30175781 C54.28288914 32.34593628 47.55282164 32.36913441 40.82237625 32.37950897 C38.25392318 32.38690285 35.68548046 32.40134118 33.11710739 32.42292023 C29.52104147 32.45193365 25.92575387 32.45595669 22.32958984 32.45410156 C21.26647583 32.46848267 20.20336182 32.48286377 19.10803223 32.49768066 C13.0640662 32.46391653 9.60517308 32.02194844 5 28 C0.91324456 23.58188601 -0.13759949 20.36472461 -0.09765625 14.453125 C-0.09443359 13.60878906 -0.09121094 12.76445313 -0.08789062 11.89453125 C-0.07951172 11.02183594 -0.07113281 10.14914063 -0.0625 9.25 C-0.05798828 8.36183594 -0.05347656 7.47367188 -0.04882812 6.55859375 C-0.037074 4.37232671 -0.02064249 2.18619821 0 0 Z " fill="#784127" transform="translate(264,32)"/>
<path d="M0 0 C1.95373787 0.01061211 1.95373787 0.01061211 3.94694519 0.0214386 C7.39810759 0.04046612 10.84820614 0.08952686 14.2989502 0.1449585 C17.82480215 0.19624472 21.35083232 0.219247 24.87695312 0.24414062 C31.78739574 0.29499758 38.69492287 0.39286101 45.60546875 0.48828125 C45.60546875 18.96828125 45.60546875 37.44828125 45.60546875 56.48828125 C37.98857359 56.55121153 30.37262111 56.61131299 22.75569153 56.6435318 C19.20859645 56.65936648 15.66171681 56.68052266 12.11474609 56.71459961 C8.04392423 56.75346413 3.97333014 56.76799699 -0.09765625 56.78125 C-1.36756409 56.79673386 -2.63747192 56.81221771 -3.94586182 56.82817078 C-5.71724518 56.82851067 -5.71724518 56.82851067 -7.52441406 56.82885742 C-8.56366028 56.83551926 -9.60290649 56.84218109 -10.67364502 56.8490448 C-13.81018597 56.4331694 -15.15260948 55.69132588 -17.39453125 53.48828125 C-18.31835115 50.71682155 -18.53997375 48.96422881 -18.58740234 46.09619141 C-18.60346527 45.21162262 -18.6195282 44.32705383 -18.63607788 43.41567993 C-18.68062975 39.38064452 -18.72157405 35.34577067 -18.74462891 31.31054688 C-18.76120345 29.18250606 -18.788513 27.05452125 -18.82666016 24.92675781 C-18.88141319 21.85582659 -18.90329853 18.78619725 -18.91796875 15.71484375 C-18.94063812 14.76574127 -18.9633075 13.81663879 -18.98666382 12.83877563 C-18.97331863 8.66729744 -18.71952182 6.0841207 -16.69897461 2.37963867 C-11.35546987 -0.6788121 -6.04220357 -0.12328769 0 0 Z " fill="#FDC8A2" transform="translate(434.39453125,423.51171875)"/>
<path d="M0 0 C1.59908203 0.24339111 1.59908203 0.24339111 3.23046875 0.49169922 C8.91775275 1.19824735 14.58916855 1.14320483 20.3125 1.1328125 C21.48079346 1.13376923 22.64908691 1.13472595 23.8527832 1.13571167 C26.31363987 1.13638972 28.77449837 1.1345617 31.23535156 1.13037109 C34.98767134 1.12501759 38.73987142 1.1303289 42.4921875 1.13671875 C44.89062526 1.1360579 47.28906295 1.1347766 49.6875 1.1328125 C50.80229736 1.13483673 51.91709473 1.13686096 53.06567383 1.13894653 C58.80625782 1.12178968 64.32289611 0.86409365 70 0 C70.53625 0.886875 71.0725 1.77375 71.625 2.6875 C73.93311458 6.18288216 76.69837793 8.44874658 80 11 C74.32181686 24.43375036 66.43720219 32.65873824 53.3046875 38.66015625 C42.94339415 42.86101159 30.92378183 44.02990445 20.1875 40.375 C5.58665979 34.16693905 -3.67829036 25.65149175 -10 11 C-9.44570313 10.54109375 -8.89140625 10.0821875 -8.3203125 9.609375 C-7.59585937 8.99578125 -6.87140625 8.3821875 -6.125 7.75 C-5.04605469 6.84507812 -5.04605469 6.84507812 -3.9453125 5.921875 C-2.02947882 4.02912366 -1.03550955 2.46342273 0 0 Z " fill="#FCC7A1" transform="translate(293,278)"/>
<path d="M0 0 C0.33 0.66 0.66 1.32 1 2 C2.58758683 2.25410076 4.17805229 2.49486158 5.77490234 2.68212891 C10.3560135 3.33657336 14.82800333 4.56379444 19.3125 5.6875 C20.36397217 5.95079102 21.41544434 6.21408203 22.4987793 6.48535156 C29.17845176 8.1931274 35.77076614 10.07214182 42.3125 12.25 C43.05218018 12.49580811 43.79186035 12.74161621 44.55395508 12.99487305 C47.6888772 14.0730484 50.22501814 15.1500121 53 17 C52.4140625 18.9140625 52.4140625 18.9140625 51 21 C48.0234375 21.8359375 48.0234375 21.8359375 44.375 22.375 C35.98911678 23.97149363 31.15031099 26.88937967 26.0625 33.6875 C21.56824701 40.90554267 22.73572254 43.6998844 22 54 C6.16 54 -9.68 54 -26 54 C-26 25.86842105 -26 25.86842105 -21 18 C-20.53078125 17.24976563 -20.0615625 16.49953125 -19.578125 15.7265625 C-14.42878948 8.27940522 -8.16101013 3.72256602 0 0 Z " fill="#D3BC80" transform="translate(410,290)"/>
<path d="M0 0 C25.08 0 50.16 0 76 0 C79.63 6.93 83.26 13.86 87 21 C91.32018647 27.47405601 91.32018647 27.47405601 95.78515625 33.84765625 C96.51605469 34.88792969 97.24695313 35.92820313 98 37 C98.46567383 37.57258545 98.93134766 38.1451709 99.41113281 38.73510742 C100 41 100 41 98.31518555 44.39160156 C97.43915836 45.73570639 96.54499322 47.06809753 95.63671875 48.390625 C95.17014359 49.09523865 94.70356842 49.79985229 94.22285461 50.52581787 C92.72588821 52.77752013 91.20672088 55.01326931 89.6875 57.25 C88.67373424 58.77250891 87.66134625 60.29593619 86.65039062 61.8203125 C85.68871095 63.2612256 84.72585987 64.70135773 83.76171875 66.140625 C83.30125656 66.82803772 82.84079437 67.51545044 82.36637878 68.22369385 C81.27120609 69.83445549 80.13945289 71.42025211 79 73 C78.67 73 78.34 73 78 73 C78 70.03 78 67.06 78 64 C76.1746875 64.0928125 76.1746875 64.0928125 74.3125 64.1875 C70.37453291 64.16662738 68.07394718 63.63481187 65 61 C62.11131244 56.6171637 61.43203421 53.20635305 62 48 C63.79117532 43.85201505 65.83492576 41.7585869 70 40 C72.67647119 39.84669917 75.31634811 39.94791687 78 40 C77.85823579 37.29139876 77.71171784 34.58319248 77.5625 31.875 C77.52318359 31.11445312 77.48386719 30.35390625 77.44335938 29.5703125 C77.40146484 28.82265625 77.35957031 28.075 77.31640625 27.3046875 C77.27974854 26.62390137 77.24309082 25.94311523 77.20532227 25.24169922 C76.95107922 22.4658851 76.46794124 19.74702777 76 17 C65.36035855 16.95370258 54.72074099 16.918144 44.0810194 16.89637566 C39.14080948 16.88592907 34.20066836 16.8717539 29.26049805 16.84912109 C24.49484389 16.82742393 19.72925602 16.81543797 14.96355629 16.81024551 C13.14344552 16.80654413 11.32333847 16.79931645 9.50325584 16.78853989 C6.95806351 16.77406649 4.41314664 16.77202031 1.86791992 16.77294922 C1.11194519 16.76575867 0.35597046 16.75856812 -0.4229126 16.75115967 C-4.16965187 16.76600082 -5.79925542 16.86617028 -9 19 C-6.39731939 12.49329847 -3.13404247 6.26808495 0 0 Z " fill="#FBBE91" transform="translate(290,80)"/>
<path d="M0 0 C6.74093652 3.77363432 12.48447851 9.59248931 14.8125 17.0625 C15.6826808 24.39832654 15.43488721 31.07528537 10.8125 37.0625 C6.29111221 41.82930758 1.93035432 45.5259311 -4.765625 46.3984375 C-13.31659973 46.52345175 -19.57204154 44.71037989 -26 38.9375 C-31.76895673 32.63189613 -33.99107501 25.13490599 -33.6328125 16.66796875 C-32.48342679 9.94305411 -28.07811758 5.55033277 -23.03125 1.2890625 C-15.99228395 -3.39363949 -7.59591097 -3.3994046 0 0 Z " fill="#030303" transform="translate(145.1875,385.9375)"/>
<path d="M0 0 C26.4 0 52.8 0 80 0 C80 5.28 80 10.56 80 16 C53.6 16 27.2 16 0 16 C0 10.72 0 5.44 0 0 Z " fill="#7A432A" transform="translate(368,360)"/>
<path d="M0 0 C5.45104655 4.67232562 8.08277577 11.21220204 10 18 C10.16237778 20.78486623 10.23437565 23.46222484 10.1953125 26.2421875 C10.1924826 27.01055939 10.18965271 27.77893127 10.18673706 28.57058716 C10.17561311 31.00555521 10.1505236 33.44014462 10.125 35.875 C10.11496011 37.53384882 10.10583603 39.19270346 10.09765625 40.8515625 C10.07740755 44.90130209 10.03824546 48.95023118 10 53 C4.72 53 -0.56 53 -6 53 C-6.04898437 51.08574219 -6.09796875 49.17148437 -6.1484375 47.19921875 C-6.22346136 44.69529756 -6.29900935 42.19139204 -6.375 39.6875 C-6.4059375 38.42486328 -6.436875 37.16222656 -6.46875 35.86132812 C-6.50742187 34.65283203 -6.54609375 33.44433594 -6.5859375 32.19921875 C-6.63306885 30.52605591 -6.63306885 30.52605591 -6.68115234 28.8190918 C-6.805249 25.79631214 -6.805249 25.79631214 -9 23 C-12.10811287 22.19458793 -12.10811287 22.19458793 -15.625 21.8125 C-17.40777344 21.57466797 -17.40777344 21.57466797 -19.2265625 21.33203125 C-20.59941406 21.16767578 -20.59941406 21.16767578 -22 21 C-22.13609913 19.27305325 -22.23249228 17.54295278 -22.3125 15.8125 C-22.37050781 14.84957031 -22.42851562 13.88664062 -22.48828125 12.89453125 C-21.80079431 8.81910867 -20.24783017 7.48899134 -17 5 C-13.5546875 3.92578125 -13.5546875 3.92578125 -9.875 3.3125 C-4.63286017 2.45011185 -4.63286017 2.45011185 0 0 Z " fill="#C4AC6F" transform="translate(470,323)"/>
<path d="M0 0 C20.46 0 40.92 0 62 0 C62 13 62 13 61 16 C41.2 16 21.4 16 1 16 C0 13 0 13 0 0 Z " fill="#C5C5C3" transform="translate(377,392)"/>
<path d="M0 0 C19.8 0 39.6 0 60 0 C60 5.28 60 10.56 60 16 C39.54 16 19.08 16 -2 16 C-1.34 10.72 -0.68 5.44 0 0 Z " fill="#C6C6C4" transform="translate(268,464)"/>
<path d="M0 0 C0.6700834 2.12392506 1.33596797 4.24917524 2 6.375 C2.37125 7.55835938 2.7425 8.74171875 3.125 9.9609375 C4 13 4 13 4 15 C2.00127261 15.48444764 0.00094063 15.9622766 -2 16.4375 C-3.11375 16.70433594 -4.2275 16.97117188 -5.375 17.24609375 C-14.30321946 19.1029325 -22.89989649 19.12043406 -32 19.0625 C-33.36067544 19.05747487 -34.72135267 19.05291376 -36.08203125 19.04882812 C-39.38804011 19.03710469 -42.69402594 19.01917124 -46 19 C-46 14.05 -46 9.1 -46 4 C-44.39253906 3.96261719 -42.78507812 3.92523438 -41.12890625 3.88671875 C-29.62446955 3.55847804 -18.51060872 2.96937028 -7.23046875 0.62109375 C-4 0 -4 0 0 0 Z " fill="#000000" transform="translate(350,185)"/>
<path d="M0 0 C1.06605469 0.16226074 2.13210938 0.32452148 3.23046875 0.49169922 C8.91775275 1.19824735 14.58916855 1.14320483 20.3125 1.1328125 C21.48079346 1.13376923 22.64908691 1.13472595 23.8527832 1.13571167 C26.31363987 1.13638972 28.77449837 1.1345617 31.23535156 1.13037109 C34.98767134 1.12501759 38.73987142 1.1303289 42.4921875 1.13671875 C44.89062526 1.1360579 47.28906295 1.1347766 49.6875 1.1328125 C50.80229736 1.13483673 51.91709473 1.13686096 53.06567383 1.13894653 C58.80625782 1.12178968 64.32289611 0.86409365 70 0 C70.99 1.98 71.98 3.96 73 6 C61.63292705 11.01081464 50.08326205 10.6118708 37.88891602 10.52148438 C34.44150619 10.50002494 30.99617499 10.52136998 27.54882812 10.546875 C25.32291214 10.54423176 23.09699744 10.53910687 20.87109375 10.53125 C19.85824814 10.53934692 18.84540253 10.54744385 17.80186462 10.55578613 C10.28427503 10.45888634 3.99157913 8.7119485 -3 6 C-2.01 4.02 -1.02 2.04 0 0 Z " fill="#FCB683" transform="translate(293,278)"/>
<path d="M0 0 C7.26 0 14.52 0 22 0 C21.67 7.92 21.34 15.84 21 24 C14.73 24 8.46 24 2 24 C1.6642309 20.75023477 1.33128987 17.50022226 1 14.25 C0.90460938 13.32960938 0.80921875 12.40921875 0.7109375 11.4609375 C0.62070312 10.57148438 0.53046875 9.68203125 0.4375 8.765625 C0.35371094 7.94868164 0.26992188 7.13173828 0.18359375 6.29003906 C0.01596798 4.19917501 0 2.09757262 0 0 Z " fill="#945639" transform="translate(379,424)"/>
<path d="M0 0 C19.8 0 39.6 0 60 0 C60 2.64 60 5.28 60 8 C40.2 8 20.4 8 0 8 C0 5.36 0 2.72 0 0 Z " fill="#D6D6D4" transform="translate(378,400)"/>
<path d="M0 0 C3.15576082 2.07993327 4.34779653 3.30699132 5.75 6.8125 C6.33323304 10.80602623 6.13823682 13.89299175 4.5625 17.625 C2.02924909 20.68237179 -0.15310993 22.50200715 -4.17578125 23.09765625 C-8.66614738 23.29215422 -11.68663003 22.76500655 -15.25 19.8125 C-18.20250655 16.24913003 -18.72965422 13.22864738 -18.53515625 8.73828125 C-17.93524439 4.68682167 -16.11497267 2.50928354 -13 0 C-8.33830019 -2.01300674 -4.72134375 -1.72510637 0 0 Z " fill="#050302" transform="translate(298.25,121.1875)"/>
<path d="M0 0 C3.12740787 2.0612461 4.33498308 3.35356975 5.75 6.8125 C6.31796579 12.01885305 5.63868756 15.4296637 2.75 19.8125 C-0.7555242 22.81723503 -3.85129312 23.29591613 -8.32421875 23.09375 C-11.28783918 22.66092917 -12.98050794 21.75777891 -15.25 19.8125 C-18.13868756 15.4296637 -18.81796579 12.01885305 -18.25 6.8125 C-14.7632172 -1.2621549 -7.96273798 -2.90946195 0 0 Z " fill="#040302" transform="translate(370.25,121.1875)"/>
<path d="M0 0 C0 10.56 0 21.12 0 32 C-7.25202537 30.96399638 -9.38254857 30.10415577 -14 25 C-16.62255682 20.78110425 -16.69212562 15.8363346 -16 11 C-12.44947467 4.03045028 -7.82609187 0 0 0 Z " fill="#F7B280" transform="translate(248,128)"/>
<path d="M0 0 C8.25 0 16.5 0 25 0 C25 5.28 25 10.56 25 16 C16.42 16 7.84 16 -1 16 C-0.67 10.72 -0.34 5.44 0 0 Z " fill="#FAB482" transform="translate(455,392)"/>
<path d="M0 0 C7.91317365 1.13045338 7.91317365 1.13045338 10.8125 3.8125 C11.37582031 4.31394531 11.93914062 4.81539062 12.51953125 5.33203125 C16.17097285 9.44592455 16.43409959 13.19581856 16.31640625 18.53125 C15.69970296 23.34305841 12.99340629 26.00659371 9.6875 29.3125 C7 31 7 31 0 32 C0 21.44 0 10.88 0 0 Z " fill="#F8B280" transform="translate(408,128)"/>
<path d="M0 0 C7.92 0 15.84 0 24 0 C24 5.28 24 10.56 24 16 C16.08 16 8.16 16 0 16 C0 10.72 0 5.44 0 0 Z " fill="#743B20" transform="translate(424,360)"/>
<path d="M0 0 C5.94 0 11.88 0 18 0 C19 7 19 7 19 16 C13.06 16 7.12 16 1 16 C0.67 10.72 0.34 5.44 0 0 Z " fill="#D0D0CE" transform="translate(382,464)"/>
<path d="M0 0 C4.22833644 1.2610828 5.95986047 2.51344609 8.5625 6.0625 C9.2454669 9.78087535 9.07573431 11.31238831 6.9375 14.4375 C3.81238831 16.57573431 2.28087535 16.7454669 -1.4375 16.0625 C-4.98655391 13.45986047 -6.2389172 11.72833644 -7.5 7.5 C-7.4375 4.0625 -7.4375 4.0625 -5.9375 1.5625 C-3.4375 0.0625 -3.4375 0.0625 0 0 Z " fill="#E3E3E1" transform="translate(135.4375,399.9375)"/>
<path d="M0 0 C2.97 0.99 5.94 1.98 9 3 C7.88222229 5.31625061 6.75625908 7.62784605 5.625 9.9375 C5.14933594 10.9265332 5.14933594 10.9265332 4.6640625 11.93554688 C2.2265625 16.88671875 2.2265625 16.88671875 0 18 C0 12.06 0 6.12 0 0 Z " fill="#8E5337" transform="translate(264,76)"/>
<path d="M0 0 C2.64 0 5.28 0 8 0 C8 4.95 8 9.9 8 15 C5.83555444 12.11407259 4.04862299 9.49272236 2.3125 6.375 C1.87550781 5.59898438 1.43851562 4.82296875 0.98828125 4.0234375 C0 2 0 2 0 0 Z " fill="#905438" transform="translate(384,80)"/>
</svg>
