<?xml version="1.0" encoding="UTF-8"?>
<svg version="1.1" xmlns="http://www.w3.org/2000/svg" width="100" height="100">
<path d="M0 0 C33 0 66 0 100 0 C100 33 100 66 100 100 C67 100 34 100 0 100 C0 67 0 34 0 0 Z " fill="#FBFCFC" transform="translate(0,0)"/>
<path d="M0 0 C2.29315132 0.01172967 4.58612206 0.10957804 6.875 0.25 C8.13054688 0.31703125 9.38609375 0.3840625 10.6796875 0.453125 C14.12284393 1.02023312 14.90886719 1.38100842 17 4 C17.804375 4.309375 18.60875 4.61875 19.4375 4.9375 C22.4222047 6.17506049 23.95326113 7.51467423 26 10 C26.36162029 11.32594105 26.69728039 12.65938457 27 14 C27.7734375 14.6496875 27.7734375 14.6496875 28.5625 15.3125 C30.8070597 17.94741791 30.05988323 20.64653936 30 24 C30.66 24.99 31.32 25.98 32 27 C32.125 30.1875 32.125 30.1875 32 33 C30.68 33.66 29.36 34.32 28 35 C28.99 35.495 28.99 35.495 30 36 C29.25 40.75 29.25 40.75 27 43 C26.71125 43.78375 26.4225 44.5675 26.125 45.375 C24.83935454 48.37483941 23.55036592 49.97470941 21 52 C19.68 52 18.36 52 17 52 C16.38125 52.680625 15.7625 53.36125 15.125 54.0625 C14.073125 55.0215625 14.073125 55.0215625 13 56 C9.875 55.625 9.875 55.625 7 55 C6.34 55.66 5.68 56.32 5 57 C2.98944339 56.73775349 0.98821313 56.39764263 -1 56 C-2.32 56 -3.64 56 -5 56 C-8.25451579 55.50689155 -9.97460281 54.63301634 -12 52 C-12 51.01 -12 50.02 -12 49 C-12.66 49 -13.32 49 -14 49 C-14 49.99 -14 50.98 -14 52 C-15.65 51.67 -17.3 51.34 -19 51 C-19.25523438 50.04287109 -19.25523438 50.04287109 -19.515625 49.06640625 C-19.75796875 48.24011719 -20.0003125 47.41382813 -20.25 46.5625 C-20.48203125 45.73878906 -20.7140625 44.91507813 -20.953125 44.06640625 C-21.80770679 41.80004532 -21.80770679 41.80004532 -24.109375 41.21484375 C-24.73328125 41.14394531 -25.3571875 41.07304688 -26 41 C-26 39.02 -26 37.04 -26 35 C-24.68 34.34 -23.36 33.68 -22 33 C-23.32 32.34 -24.64 31.68 -26 31 C-26.125 28.625 -26.125 28.625 -26 26 C-25.34 25.34 -24.68 24.68 -24 24 C-24.185625 23.030625 -24.37125 22.06125 -24.5625 21.0625 C-24.706875 20.051875 -24.85125 19.04125 -25 18 C-23.625 16.4375 -23.625 16.4375 -22 15 C-21.8453125 13.824375 -21.8453125 13.824375 -21.6875 12.625 C-20.68330293 8.79079302 -18.1198958 7.15938855 -15 5 C-14.43667969 4.60296875 -13.87335937 4.2059375 -13.29296875 3.796875 C-9.05478651 1.07984621 -5.95074904 0.70295506 -1 1 C-0.67 0.67 -0.34 0.34 0 0 Z " fill="#F4F9FA" transform="translate(46,7)"/>
<path d="M0 0 C2.5 0.375 2.5 0.375 5 1 C7.21081851 1.10540926 7.21081851 1.10540926 10 0 C10 0.66 10 1.32 10 2 C10.556875 1.67 11.11375 1.34 11.6875 1 C14.37150184 -0.16064945 16.10539438 -0.38086916 19 0 C21 3 21 3 20.625 5.6875 C20.41875 6.450625 20.2125 7.21375 20 8 C20.66 8.33 21.32 8.66 22 9 C22.66 6.03 23.32 3.06 24 0 C29.61 0 35.22 0 41 0 C41.495 0.99 41.495 0.99 42 2 C40.68 2 39.36 2 38 2 C38 2.66 38 3.32 38 4 C39.32 3.67 40.64 3.34 42 3 C42 4.98 42 6.96 42 9 C41.34 9 40.68 9 40 9 C40 8.01 40 7.02 40 6 C39.34 6 38.68 6 38 6 C38 7.32 38 8.64 38 10 C35.07175348 10.97608217 33.04386724 11.08226668 30 11 C30.66 11.33 31.32 11.66 32 12 C32 12.66 32 13.32 32 14 C33.32 13.67 34.64 13.34 36 13 C36 14.65 36 16.3 36 18 C35.34926514 17.96970703 34.69853027 17.93941406 34.02807617 17.90820312 C31.08125002 17.77142283 28.13437612 17.63569934 25.1875 17.5 C24.16333984 17.45230469 23.13917969 17.40460938 22.08398438 17.35546875 C20.60961914 17.28779297 20.60961914 17.28779297 19.10546875 17.21875 C18.19949951 17.17685547 17.29353027 17.13496094 16.36010742 17.09179688 C14.57449311 17.02234503 12.78696447 17 11 17 C9.04296085 16.71591367 7.08588371 16.43128741 5.1328125 16.12109375 C2.60171884 15.97738697 0.48333629 16.49965372 -2 17 C-4.10323534 17.0659735 -6.20835724 17.08562245 -8.3125 17.0625 C-9.38113281 17.05347656 -10.44976562 17.04445313 -11.55078125 17.03515625 C-12.35902344 17.02355469 -13.16726562 17.01195313 -14 17 C-14 15.68 -14 14.36 -14 13 C-10.18243176 11.62567543 -6.92744671 12.32024961 -3 13 C-2.95101563 12.22914062 -2.90203125 11.45828125 -2.8515625 10.6640625 C-2.77679688 9.66117188 -2.70203125 8.65828125 -2.625 7.625 C-2.52058594 6.12839844 -2.52058594 6.12839844 -2.4140625 4.6015625 C-2 2 -2 2 0 0 Z " fill="#ECF1F3" transform="translate(21,71)"/>
<path d="M0 0 C2.29315132 0.01172967 4.58612206 0.10957804 6.875 0.25 C8.13054688 0.31703125 9.38609375 0.3840625 10.6796875 0.453125 C14.12354385 1.0203484 14.90573617 1.3838646 17 4 C17.804375 4.28875 18.60875 4.5775 19.4375 4.875 C22.64865334 6.28477464 23.99428583 8.17714301 26 11 C25.443125 10.71125 24.88625 10.4225 24.3125 10.125 C21.91505355 8.9586747 19.48403061 7.9660119 17 7 C17.57452746 10.93075644 17.57452746 10.93075644 20 14 C19.625 16.625 19.625 16.625 19 19 C15.85375007 19.26218749 14.38162983 19.24754367 11.6875 17.5 C11.130625 17.005 10.57375 16.51 10 16 C9.46375 16.33 8.9275 16.66 8.375 17 C5.37158874 18.26459422 3.23965556 18.26446168 0 18 C-0.86625 17.608125 -1.7325 17.21625 -2.625 16.8125 C-3.40875 16.544375 -4.1925 16.27625 -5 16 C-5.5775 16.474375 -6.155 16.94875 -6.75 17.4375 C-9.52678368 19.365822 -10.31521827 19.00886321 -13.5625 18.5 C-14.32691406 18.3453125 -15.09132813 18.190625 -15.87890625 18.03125 C-18.05683256 17.80482903 -18.05683256 17.80482903 -19.796875 19.14453125 C-21.45245662 21.69778213 -21.11261196 23.21171628 -20.6875 26.1875 C-20.56761719 27.08855469 -20.44773437 27.98960938 -20.32421875 28.91796875 C-20.21722656 29.60503906 -20.11023438 30.29210937 -20 31 C-21.65614657 31.38218767 -23.32457024 31.71395102 -25 32 C-26 31 -26 31 -26.1875 28.5625 C-26 26 -26 26 -24 24 C-24.185625 23.030625 -24.37125 22.06125 -24.5625 21.0625 C-24.706875 20.051875 -24.85125 19.04125 -25 18 C-23.625 16.4375 -23.625 16.4375 -22 15 C-21.8453125 13.824375 -21.8453125 13.824375 -21.6875 12.625 C-20.68330293 8.79079302 -18.1198958 7.15938855 -15 5 C-14.43667969 4.60296875 -13.87335937 4.2059375 -13.29296875 3.796875 C-9.05478651 1.07984621 -5.95074904 0.70295506 -1 1 C-0.67 0.67 -0.34 0.34 0 0 Z " fill="#EFF7F9" transform="translate(46,7)"/>
<path d="M0 0 C2.92761527 0.32529059 5.32615294 0.59569177 7.875 2.125 C9.58861647 4.98102745 9.05840809 7.72914679 9 11 C9.66 11.99 10.32 12.98 11 14 C11.125 17.1875 11.125 17.1875 11 20 C9.02 20.99 9.02 20.99 7 22 C7.66 22.33 8.32 22.66 9 23 C8.25 27.75 8.25 27.75 6 30 C5.731875 30.78375 5.46375 31.5675 5.1875 32.375 C3.7273616 35.60267436 1.85395549 36.97218952 -1 39 C-0.690625 38.278125 -0.38125 37.55625 -0.0625 36.8125 C0.92560539 34.19692691 1.5287754 31.74881018 2 29 C0.9171875 29.4640625 0.9171875 29.4640625 -0.1875 29.9375 C-2.80307309 30.92560539 -5.25118982 31.5287754 -8 32 C-8.625 29.625 -8.625 29.625 -9 27 C-7 25 -7 25 -4.4375 24.875 C-3.2309375 24.936875 -3.2309375 24.936875 -2 25 C-1.67 25 -1.34 25 -1 25 C-1.185625 24.38125 -1.37125 23.7625 -1.5625 23.125 C-2 21 -2 21 -1 19 C-1.763125 19.226875 -2.52625 19.45375 -3.3125 19.6875 C-4.199375 19.790625 -5.08625 19.89375 -6 20 C-7 19 -8 18 -9 17 C-12.34192692 17.24453124 -13.60543557 17.60543557 -16 20 C-19.125 19.625 -19.125 19.625 -22 19 C-22.625 16.125 -22.625 16.125 -23 13 C-21 11 -21 11 -18.5 10.75 C-16 11 -16 11 -14 13 C-10.26703674 13.38286803 -9.22373677 13.14915785 -6 11 C-5.01 11 -4.02 11 -3 11 C-2.87625 10.401875 -2.7525 9.80375 -2.625 9.1875 C-2 7 -2 7 0 4 C0 2.68 0 1.36 0 0 Z " fill="#F9FAF8" transform="translate(67,20)"/>
<path d="M0 0 C2.625 0.375 2.625 0.375 5 1 C5.625 3.3125 5.625 3.3125 6 6 C5.01 7.485 5.01 7.485 4 9 C4.3241369 12.32240324 4.60776303 13.60776303 7 16 C9.35065178 15.71433121 9.35065178 15.71433121 12 15 C15.1875 14.3125 15.1875 14.3125 18 14 C18.66 14.66 19.32 15.32 20 16 C19.44444444 20.55555556 19.44444444 20.55555556 18 22 C14.37940768 22.29356154 12.12296038 21.85064319 9 20 C7.35444301 21.22809091 7.35444301 21.22809091 6 23 C6.22757731 25.16299211 6.22757731 25.16299211 7 27 C8.65614657 27.38218767 10.32457024 27.71395102 12 28 C12.33 27.67 12.66 27.34 13 27 C15.72902006 26.84838777 17.91370641 26.97684806 20.5625 27.6875 C23.09538451 28.29132252 23.09538451 28.29132252 25.125 26.5 C25.74375 26.005 26.3625 25.51 27 25 C27.99 25.33 28.98 25.66 30 26 C29.25 28.4375 29.25 28.4375 28 31 C25.60929865 32.11566063 24.42074075 32.11137255 21.875 31.4375 C20.946875 31.2209375 20.946875 31.2209375 20 31 C19.34 31.66 18.68 32.32 18 33 C15.98944339 32.73775349 13.98821313 32.39764263 12 32 C10.68 32 9.36 32 8 32 C4.74548421 31.50689155 3.02539719 30.63301634 1 28 C1 27.01 1 26.02 1 25 C0.34 25 -0.32 25 -1 25 C-1 25.99 -1 26.98 -1 28 C-2.65 27.67 -4.3 27.34 -6 27 C-6.18175781 26.38511719 -6.36351562 25.77023438 -6.55078125 25.13671875 C-6.80214844 24.32847656 -7.05351562 23.52023438 -7.3125 22.6875 C-7.55613281 21.88699219 -7.79976562 21.08648437 -8.05078125 20.26171875 C-8.85737234 17.94014072 -8.85737234 17.94014072 -10.60546875 16.39453125 C-11.06566406 15.93433594 -11.52585937 15.47414063 -12 15 C-12 14.01 -12 13.02 -12 12 C-7.68607774 12.4793247 -5.83430453 13.7457985 -3 17 C-1.33153266 15.30504044 -1.33153266 15.30504044 0 13 C-0.23445929 9.67649546 -0.23445929 9.67649546 -2 7 C-2.1875 4.5625 -2.1875 4.5625 -2 2 C-1.34 1.34 -0.68 0.68 0 0 Z " fill="#E5F3F8" transform="translate(33,31)"/>
<path d="M0 0 C4.42105263 0.42105263 4.42105263 0.42105263 6 2 C6.125 4.5 6.125 4.5 6 7 C5 8 5 8 2.25 8.1875 C-1 8 -1 8 -3.625 6.8125 C-4.40875 6.544375 -5.1925 6.27625 -6 6 C-6.5775 6.474375 -7.155 6.94875 -7.75 7.4375 C-10.52678368 9.365822 -11.31521827 9.00886321 -14.5625 8.5 C-15.32691406 8.3453125 -16.09132813 8.190625 -16.87890625 8.03125 C-19.05683256 7.80482903 -19.05683256 7.80482903 -20.796875 9.14453125 C-22.45245662 11.69778213 -22.11261196 13.21171628 -21.6875 16.1875 C-21.56761719 17.08855469 -21.44773437 17.98960938 -21.32421875 18.91796875 C-21.21722656 19.60503906 -21.11023438 20.29210937 -21 21 C-22.65614657 21.38218767 -24.32457024 21.71395102 -26 22 C-27 21 -27 21 -27.1875 18.5625 C-27 16 -27 16 -25 14 C-25.20625 13.05125 -25.4125 12.1025 -25.625 11.125 C-26 8 -26 8 -24.5 5.625 C-21.20922812 3.48599828 -18.85531281 3.85721064 -15 4 C-14.34 3.34 -13.68 2.68 -13 2 C-10.22668803 1.77513687 -8.07158606 1.98125127 -5.375 2.6875 C-4.59125 2.790625 -3.8075 2.89375 -3 3 C-2.505 2.505 -2.01 2.01 -1.5 1.5 C-1.005 1.005 -0.51 0.51 0 0 Z " fill="#797B7B" transform="translate(47,17)"/>
<path d="M0 0 C2.625 0.375 2.625 0.375 5 1 C5.625 3.3125 5.625 3.3125 6 6 C5.01 7.485 5.01 7.485 4 9 C4.3241369 12.32240324 4.60776303 13.60776303 7 16 C9.35065178 15.71433121 9.35065178 15.71433121 12 15 C15.1875 14.3125 15.1875 14.3125 18 14 C18.66 14.66 19.32 15.32 20 16 C19.44444444 20.55555556 19.44444444 20.55555556 18 22 C15.5625 22.1875 15.5625 22.1875 13 22 C12.34 21.34 11.68 20.68 11 20 C8.61626689 20.05444647 8.61626689 20.05444647 6 20.5 C3.3125 20.90625 3.3125 20.90625 1 21 C-1 19 -1 19 -1.1875 16.6875 C-1 14 -1 14 -0.375 11.3125 C-0.25125 10.549375 -0.1275 9.78625 0 9 C-0.66 8.34 -1.32 7.68 -2 7 C-2.25 4.5 -2.25 4.5 -2 2 C-1.34 1.34 -0.68 0.68 0 0 Z " fill="#3A7BB5" transform="translate(33,31)"/>
<path d="M0 0 C2.5 0.25 2.5 0.25 4.5 2.25 C8.23296326 2.63286803 9.27626323 2.39915785 12.5 0.25 C15.1875 0.625 15.1875 0.625 17.5 1.25 C18.1875 3.5625 18.1875 3.5625 18.5 6.25 C17.3125 8.125 17.3125 8.125 15.5 9.25 C12.52602384 8.97963853 11.64553974 8.39553974 9.5 6.25 C6.20285207 6.57971479 4.8773161 6.8726839 2.5 9.25 C-0.625 8.875 -0.625 8.875 -3.5 8.25 C-4.125 5.375 -4.125 5.375 -4.5 2.25 C-2.5 0.25 -2.5 0.25 0 0 Z " fill="#7B7C7B" transform="translate(48.5,30.75)"/>
<path d="M0 0 C2.33944736 0.28730055 4.6739143 0.61936779 7 1 C7 2.32 7 3.64 7 5 C4.36 5.33 1.72 5.66 -1 6 C-1.042721 4.33388095 -1.04063832 2.66617115 -1 1 C-0.67 0.67 -0.34 0.34 0 0 Z M-8 5 C-3.94393835 5.46800711 -0.53411321 5.87953208 3 8 C2.67 8.99 2.34 9.98 2 11 C-11.2 11 -24.4 11 -38 11 C-37.67 10.34 -37.34 9.68 -37 9 C-25.45 9 -13.9 9 -2 9 C-4.31 8.67 -6.62 8.34 -9 8 C-8.67 7.01 -8.34 6.02 -8 5 Z " fill="#E3E3E3" transform="translate(58,83)"/>
<path d="M0 0 C2.96175123 0.61277612 4.38058783 1.25372522 7 3 C9.12936242 2.98734516 9.12936242 2.98734516 11.375 2.5625 C14.23859315 2.14943713 15.95180552 1.98929012 18.8125 2.625 C21.12508285 3.2865642 21.12508285 3.2865642 23.125 1.5 C23.74375 1.005 24.3625 0.51 25 0 C25.99 0.33 26.98 0.66 28 1 C27.25 3.4375 27.25 3.4375 26 6 C23.60929865 7.11566063 22.42074075 7.11137255 19.875 6.4375 C19.25625 6.293125 18.6375 6.14875 18 6 C17.34 6.66 16.68 7.32 16 8 C13.98944339 7.73775349 11.98821313 7.39764263 10 7 C8.68 7 7.36 7 6 7 C3.03810132 6.477312 2.18963764 6.18963764 0 4 C0 2.68 0 1.36 0 0 Z " fill="#828282" transform="translate(35,56)"/>
<path d="M0 0 C1.32 0 2.64 0 4 0 C3.25 4.75 3.25 4.75 1 7 C0.731875 7.78375 0.46375 8.5675 0.1875 9.375 C-1.2726384 12.60267436 -3.14604451 13.97218952 -6 16 C-5.690625 15.278125 -5.38125 14.55625 -5.0625 13.8125 C-4.07439461 11.19692691 -3.4712246 8.74881018 -3 6 C-3.721875 6.309375 -4.44375 6.61875 -5.1875 6.9375 C-7.80307309 7.92560539 -10.25118982 8.5287754 -13 9 C-13.625 6.625 -13.625 6.625 -14 4 C-12 2 -12 2 -9.625 1.8125 C-7 2 -7 2 -4.875 2.6875 C-3.946875 2.8421875 -3.946875 2.8421875 -3 3 C-1.97895449 2.02149805 -0.9793879 1.02019573 0 0 Z " fill="#4281B8" transform="translate(72,43)"/>
<path d="M0 0 C2.86724686 0.57344937 3.8614515 0.8614515 6 3 C6.78375 3.268125 7.5675 3.53625 8.375 3.8125 C11.60267436 5.2726384 12.97218952 7.14604451 15 10 C14.443125 9.71125 13.88625 9.4225 13.3125 9.125 C10.91505355 7.9586747 8.48403061 6.9660119 6 6 C6.57452746 9.93075644 6.57452746 9.93075644 9 13 C8.625 15.625 8.625 15.625 8 18 C5.625 18.125 5.625 18.125 3 18 C1 16 1 16 0.8125 13.625 C1 11 1 11 1.625 8.875 C1.74875 8.25625 1.8725 7.6375 2 7 C1.34 6.01 0.68 5.02 0 4 C0 2.68 0 1.36 0 0 Z " fill="#518BBE" transform="translate(57,8)"/>
<path d="M0 0 C1.2065625 0.0309375 1.2065625 0.0309375 2.4375 0.0625 C2.7675 1.7125 3.0975 3.3625 3.4375 5.0625 C1.78135343 5.44468767 0.11292976 5.77645102 -1.5625 6.0625 C-1.8925 5.7325 -2.2225 5.4025 -2.5625 5.0625 C-5.02059998 4.8124227 -5.02059998 4.8124227 -7.5625 5.0625 C-8.2225 5.7225 -8.8825 6.3825 -9.5625 7.0625 C-10.490625 7.02125 -11.41875 6.98 -12.375 6.9375 C-16.36448671 7.09395046 -17.64346225 8.46779978 -20.5625 11.0625 C-21.2225 11.0625 -21.8825 11.0625 -22.5625 11.0625 C-20.42329657 5.62585041 -15.68069058 3.39242258 -10.5625 1.0625 C-8.03171036 0.65884359 -6.1345491 0.78887776 -3.5625 1.0625 C-2.5625 0.0625 -2.5625 0.0625 0 0 Z " fill="#3977AE" transform="translate(48.5625,6.9375)"/>
<path d="M0 0 C0 0.66 0 1.32 0 2 C1.32 1.67 2.64 1.34 4 1 C4 2.65 4 4.3 4 6 C-3.26 5.67 -10.52 5.34 -18 5 C-18.33 3.68 -18.66 2.36 -19 1 C-18.16855469 1.01160156 -17.33710937 1.02320312 -16.48046875 1.03515625 C-14.85044922 1.04869141 -14.85044922 1.04869141 -13.1875 1.0625 C-11.56908203 1.07990234 -11.56908203 1.07990234 -9.91796875 1.09765625 C-6.37742222 0.97916406 -3.61251393 0 0 0 Z " fill="#B8B8B8" transform="translate(53,83)"/>
<path d="M0 0 C1.36125 0.37125 1.36125 0.37125 2.75 0.75 C2.75 1.41 2.75 2.07 2.75 2.75 C1.5434375 3.3996875 1.5434375 3.3996875 0.3125 4.0625 C-2.47344183 5.51850621 -2.47344183 5.51850621 -3.125 8.375 C-3.16625 9.15875 -3.2075 9.9425 -3.25 10.75 C-2.92 11.08 -2.59 11.41 -2.25 11.75 C-2.20936168 13.41617115 -2.207279 15.08388095 -2.25 16.75 C-3.90614657 17.13218767 -5.57457024 17.46395102 -7.25 17.75 C-8.25 16.75 -8.25 16.75 -8.4375 14.3125 C-8.25 11.75 -8.25 11.75 -6.25 9.75 C-6.45625 8.80125 -6.6625 7.8525 -6.875 6.875 C-7.25 3.75 -7.25 3.75 -5.6875 1.3125 C-3.25 -0.25 -3.25 -0.25 0 0 Z " fill="#7B7E7B" transform="translate(28.25,21.25)"/>
<path d="M0 0 C2.86724686 0.57344937 3.8614515 0.8614515 6 3 C6 5.33333333 6 7.66666667 6 10 C6.99 11.485 6.99 11.485 8 13 C7.625 15.1875 7.625 15.1875 7 17 C5.125 17.625 5.125 17.625 3 18 C2.34 17.34 1.68 16.68 1 16 C1.10565229 13.68005186 1.51429505 11.47906641 1.90625 9.19140625 C2.22846543 6.70379527 2.22846543 6.70379527 0 4 C0 2.68 0 1.36 0 0 Z " fill="#808584" transform="translate(70,21)"/>
<path d="M0 0 C1.14275391 -0.00386719 1.14275391 -0.00386719 2.30859375 -0.0078125 C4.52255986 0.12264651 6.42245875 0.57146591 8.5625 1.125 C10.56213028 1.16345443 12.56301633 1.17044281 14.5625 1.125 C14.5625 2.445 14.5625 3.765 14.5625 5.125 C13.840625 4.939375 13.11875 4.75375 12.375 4.5625 C9.64363974 3.96985634 9.64363974 3.96985634 7.28125 4.59375 C4.20956082 5.19396513 1.37710211 5.22186376 -1.75 5.1875 C-2.81863281 5.17847656 -3.88726562 5.16945313 -4.98828125 5.16015625 C-5.79652344 5.14855469 -6.60476562 5.13695313 -7.4375 5.125 C-7.4375 3.805 -7.4375 2.485 -7.4375 1.125 C-4.64001159 0.19250386 -2.89429119 -0.00976152 0 0 Z " fill="#ADAEAE" transform="translate(14.4375,82.875)"/>
<path d="M0 0 C1.2375 0.1546875 1.2375 0.1546875 2.5 0.3125 C4.5 3.3125 4.5 3.3125 4.1875 5.9375 C3.5 8.3125 3.5 8.3125 2.5 9.3125 C-0.5 9.4375 -0.5 9.4375 -3.5 9.3125 C-4.5 8.3125 -4.5 8.3125 -4.6875 5.375 C-4.45331344 1.54995285 -3.86571441 0.4832143 0 0 Z " fill="#5583AF" transform="translate(37.5,70.6875)"/>
<path d="M0 0 C3.43927579 1.2419607 6.25207819 2.55740284 9 5 C9 5.66 9 6.32 9 7 C7.35 7 5.7 7 4 7 C4.33 8.65 4.66 10.3 5 12 C4.01 12 3.02 12 2 12 C1.87625 11.21625 1.7525 10.4325 1.625 9.625 C1.20882007 6.85942178 1.20882007 6.85942178 -1 5 C-0.625 2.375 -0.625 2.375 0 0 Z " fill="#E8F6FB" transform="translate(63,13)"/>
<path d="M0 0 C2.33944736 0.28730055 4.6739143 0.61936779 7 1 C7 2.32 7 3.64 7 5 C4.36 5.33 1.72 5.66 -1 6 C-1.042721 4.33388095 -1.04063832 2.66617115 -1 1 C-0.67 0.67 -0.34 0.34 0 0 Z M-8 5 C-5.69 5.33 -3.38 5.66 -1 6 C-1 6.99 -1 7.98 -1 9 C-3.64 8.67 -6.28 8.34 -9 8 C-8.67 7.01 -8.34 6.02 -8 5 Z " fill="#F1F1F0" transform="translate(58,83)"/>
<path d="M0 0 C4.75 0.75 4.75 0.75 7 3 C6.979375 4.134375 6.95875 5.26875 6.9375 6.4375 C6.64362971 9.93875388 6.64362971 9.93875388 8.5 11.9375 C8.995 12.288125 9.49 12.63875 10 13 C9.67 13.66 9.34 14.32 9 15 C5.64688104 11.99375541 3.93222616 9.04010925 2 5 C1.34 4.34 0.68 3.68 0 3 C0 2.01 0 1.02 0 0 Z " fill="#497CAA" transform="translate(21,43)"/>
<path d="M0 0 C0.763125 0.20625 1.52625 0.4125 2.3125 0.625 C2.6425 2.275 2.9725 3.925 3.3125 5.625 C1.0025 5.625 -1.3075 5.625 -3.6875 5.625 C-4.3475 4.305 -5.0075 2.985 -5.6875 1.625 C-2.6875 -0.375 -2.6875 -0.375 0 0 Z " fill="#2170BB" transform="translate(49.6875,45.375)"/>
<path d="M0 0 C0.33 1.65 0.66 3.3 1 5 C-3.05431692 6.15837626 -5.21812119 5.83691257 -9 4 C-9 3.34 -9 2.68 -9 2 C-5.86501708 0.14223235 -3.62528568 -0.20140476 0 0 Z " fill="#4882B7" transform="translate(51,7)"/>
<path d="M0 0 C1.65 0 3.3 0 5 0 C5.33 0.66 5.66 1.32 6 2 C4.68 2 3.36 2 2 2 C2 2.66 2 3.32 2 4 C3.32 3.67 4.64 3.34 6 3 C6 4.98 6 6.96 6 9 C5.34 9 4.68 9 4 9 C4 8.01 4 7.02 4 6 C3.34 6 2.68 6 2 6 C2 6.99 2 7.98 2 9 C1.34 9 0.68 9 0 9 C0 6.03 0 3.06 0 0 Z " fill="#507CA6" transform="translate(57,71)"/>
<path d="M0 0 C0.721875 0.350625 1.44375 0.70125 2.1875 1.0625 C5.38276934 2.12758978 6.80681371 1.90064229 10 1 C10.763125 0.814375 11.52625 0.62875 12.3125 0.4375 C12.869375 0.293125 13.42625 0.14875 14 0 C12.25 2 12.25 2 10 4 C8.68 4 7.36 4 6 4 C5.67 4.99 5.34 5.98 5 7 C4.01 7 3.02 7 2 7 C2 5.35 2 3.7 2 2 C1.34 2 0.68 2 0 2 C-0.66 3.32 -1.32 4.64 -2 6 C-1.125 1.125 -1.125 1.125 0 0 Z " fill="#EEF0EF" transform="translate(42,61)"/>
<path d="M0 0 C1.2065625 0.0309375 1.2065625 0.0309375 2.4375 0.0625 C2.4375 0.7225 2.4375 1.3825 2.4375 2.0625 C1.1175 2.0625 -0.2025 2.0625 -1.5625 2.0625 C-1.5625 2.7225 -1.5625 3.3825 -1.5625 4.0625 C-0.2425 4.3925 1.0775 4.7225 2.4375 5.0625 C1.1175 5.0625 -0.2025 5.0625 -1.5625 5.0625 C-1.5625 5.7225 -1.5625 6.3825 -1.5625 7.0625 C0.0875 7.0625 1.7375 7.0625 3.4375 7.0625 C3.4375 7.7225 3.4375 8.3825 3.4375 9.0625 C1.43795254 9.10504356 -0.56291636 9.10330783 -2.5625 9.0625 C-3.5625 8.0625 -3.5625 8.0625 -3.6875 4.5625 C-3.52762642 0.08603967 -3.52762642 0.08603967 0 0 Z " fill="#4F7FAA" transform="translate(52.5625,70.9375)"/>
<path d="M0 0 C2.625 0.375 2.625 0.375 5 1 C5 3.64 5 6.28 5 9 C4.34 9 3.68 9 3 9 C3 6.69 3 4.38 3 2 C2.01 2 1.02 2 0 2 C0 4.31 0 6.62 0 9 C-0.66 9 -1.32 9 -2 9 C-2.125 5.625 -2.125 5.625 -2 2 C-1.34 1.34 -0.68 0.68 0 0 Z " fill="#507EAA" transform="translate(21,71)"/>
<path d="M0 0 C4.70588235 0.70588235 4.70588235 0.70588235 6 2 C6.04092937 4.33297433 6.04241723 6.66705225 6 9 C5.34 9 4.68 9 4 9 C4 6.69 4 4.38 4 2 C3.01 2 2.02 2 1 2 C1 4.31 1 6.62 1 9 C0.34 9 -0.32 9 -1 9 C-1.09765625 2.84765625 -1.09765625 2.84765625 -1 1 C-0.67 0.67 -0.34 0.34 0 0 Z " fill="#4F7FA8" transform="translate(69,71)"/>
<path d="M0 0 C-1.44785276 4.70552147 -1.44785276 4.70552147 -3.875 6 C-6.74470549 6 -7.90463451 4.87086204 -10 3 C-3.375 -1.125 -3.375 -1.125 0 0 Z " fill="#7D7F80" transform="translate(63,57)"/>
<path d="M0 0 C3.63 0 7.26 0 11 0 C10.67 0.99 10.34 1.98 10 3 C3.375 4.125 3.375 4.125 0 3 C0 2.01 0 1.02 0 0 Z " fill="#A6A6A6" transform="translate(34,84)"/>
<path d="M0 0 C0.66 0 1.32 0 2 0 C2 2.97 2 5.94 2 9 C1.67 8.34 1.34 7.68 1 7 C-0.65 7 -2.3 7 -4 7 C-4 5.35 -4 3.7 -4 2 C-2.68 2 -1.36 2 0 2 C0 1.34 0 0.68 0 0 Z " fill="#B6DDEF" transform="translate(55,71)"/>
<path d="M0 0 C1.2065625 0.0309375 1.2065625 0.0309375 2.4375 0.0625 C0.6875 4.9375 0.6875 4.9375 -1.5625 6.0625 C-3.6875 5.625 -3.6875 5.625 -5.5625 5.0625 C-3.15007962 0.07683121 -3.15007962 0.07683121 0 0 Z " fill="#696969" transform="translate(36.5625,18.9375)"/>
<path d="M0 0 C2.64 0 5.28 0 8 0 C8 1.65 8 3.3 8 5 C7.34 5 6.68 5 6 5 C5.67 4.34 5.34 3.68 5 3 C3.02 3.33 1.04 3.66 -1 4 C-0.67 2.68 -0.34 1.36 0 0 Z " fill="#989898" transform="translate(75,84)"/>
<path d="M0 0 C2.86724686 0.57344937 3.8614515 0.8614515 6 3 C5.625 5.625 5.625 5.625 5 8 C2.5 6.25 2.5 6.25 0 4 C0 2.68 0 1.36 0 0 Z " fill="#757878" transform="translate(70,21)"/>
<path d="M0 0 C2.125 0.375 2.125 0.375 4 1 C3.01 1.495 3.01 1.495 2 2 C2 3.98 2 5.96 2 8 C1.01 8 0.02 8 -1 8 C-2 7 -2 7 -2.1875 4.5625 C-2 2 -2 2 0 0 Z " fill="#5290C1" transform="translate(33,31)"/>
<path d="M0 0 C2.0625 0.4375 2.0625 0.4375 4 1 C4 2.32 4 3.64 4 5 C2.35 5.33 0.7 5.66 -1 6 C-1.042721 4.33388095 -1.04063832 2.66617115 -1 1 C-0.67 0.67 -0.34 0.34 0 0 Z " fill="#727472" transform="translate(48,58)"/>
<path d="M0 0 C6.14830711 1.20555041 8.35248219 2.91558124 12 8 C11.1646875 7.566875 11.1646875 7.566875 10.3125 7.125 C5.37528391 4.70247916 5.37528391 4.70247916 0 4 C0 2.68 0 1.36 0 0 Z " fill="#4675A6" transform="translate(60,10)"/>
<path d="M0 0 C0.99 0 1.98 0 3 0 C3 0.66 3 1.32 3 2 C2.34 2 1.68 2 1 2 C1.33 4.31 1.66 6.62 2 9 C0.68 9 -0.64 9 -2 9 C-1.34 6.03 -0.68 3.06 0 0 Z " fill="#759ABA" transform="translate(45,71)"/>
<path d="M0 0 C1.98 0 3.96 0 6 0 C6 0.66 6 1.32 6 2 C5.34 2 4.68 2 4 2 C4 4.31 4 6.62 4 9 C3.34 9 2.68 9 2 9 C2 6.69 2 4.38 2 2 C1.34 2 0.68 2 0 2 C0 1.34 0 0.68 0 0 Z " fill="#4B7BAA" transform="translate(76,71)"/>
<path d="M0 0 C1.32 0.33 2.64 0.66 4 1 C3.979375 1.7425 3.95875 2.485 3.9375 3.25 C3.99328688 5.70462279 4.3069904 7.66109261 5 10 C4.01 10 3.02 10 2 10 C1.33333333 6.66666667 0.66666667 3.33333333 0 0 Z " fill="#5490BC" transform="translate(57,8)"/>
<path d="M0 0 C3.00024116 -0.2500201 4.55743244 -0.28636724 7.125 1.375 C7.74375 1.91125 8.3625 2.4475 9 3 C9.99 3.66 10.98 4.32 12 5 C10.02 5 8.04 5 6 5 C6 4.34 6 3.68 6 3 C4.02 3 2.04 3 0 3 C0 2.01 0 1.02 0 0 Z " fill="#726F6C" transform="translate(46,31)"/>
<path d="M0 0 C2.475 0.495 2.475 0.495 5 1 C4.67 2.32 4.34 3.64 4 5 C2.68 5 1.36 5 0 5 C0 3.35 0 1.7 0 0 Z " fill="#D1E9FB" transform="translate(35,73)"/>
<path d="M0 0 C0.33 0.66 0.66 1.32 1 2 C1.99 2.33 2.98 2.66 4 3 C4 3.66 4 4.32 4 5 C4.99 4.67 5.98 4.34 7 4 C7 4.99 7 5.98 7 7 C4.03 6.505 4.03 6.505 1 6 C0.67 4.02 0.34 2.04 0 0 Z " fill="#818688" transform="translate(44,33)"/>
<path d="M0 0 C0.33 0.66 0.66 1.32 1 2 C-1.94885691 4.94885691 -5.0528418 6.6842806 -9 8 C-7.50164772 3.33845958 -4.11536409 2.13389249 0 0 Z " fill="#6888AC" transform="translate(35,10)"/>
<path d="M0 0 C0.99 0 1.98 0 3 0 C3 0.66 3 1.32 3 2 C3.66 2 4.32 2 5 2 C5 4.31 5 6.62 5 9 C4.01 9 3.02 9 2 9 C1.855625 7.88625 1.71125 6.7725 1.5625 5.625 C1.21627965 2.17857953 1.21627965 2.17857953 0 0 Z " fill="#E7F9FD" transform="translate(73,71)"/>
<path d="M0 0 C1.875 0.25 1.875 0.25 4 1 C5.25 3.0625 5.25 3.0625 6 5 C4.35 5 2.7 5 1 5 C0.67 3.35 0.34 1.7 0 0 Z " fill="#757474" transform="translate(35,56)"/>
<path d="M0 0 C0 1.32 0 2.64 0 4 C-2.31 3.67 -4.62 3.34 -7 3 C-7 2.34 -7 1.68 -7 1 C-4.53721199 -0.231394 -2.7204945 -0.07159196 0 0 Z " fill="#9E9E9E" transform="translate(65,84)"/>
<path d="M0 0 C0.99 0 1.98 0 3 0 C3 2.31 3 4.62 3 7 C2.01 7 1.02 7 0 7 C0 4.69 0 2.38 0 0 Z " fill="#D2ECFB" transform="translate(70,73)"/>
<path d="M0 0 C0.6875 1.8125 0.6875 1.8125 1 4 C-0.1875 5.8125 -0.1875 5.8125 -2 7 C-4.1875 6.6875 -4.1875 6.6875 -6 6 C-5.67 5.01 -5.34 4.02 -5 3 C-3.35 3 -1.7 3 0 3 C0 2.01 0 1.02 0 0 Z " fill="#878A8B" transform="translate(66,33)"/>
<path d="M0 0 C0 1.65 0 3.3 0 5 C-2.97 4.505 -2.97 4.505 -6 4 C-6 3.01 -6 2.02 -6 1 C-1.125 0 -1.125 0 0 0 Z " fill="#959595" transform="translate(90,83)"/>
<path d="M0 0 C0.66 0 1.32 0 2 0 C2 0.66 2 1.32 2 2 C1.34 2 0.68 2 0 2 C0.185625 2.598125 0.37125 3.19625 0.5625 3.8125 C1 6 1 6 0 9 C-0.66 9 -1.32 9 -2 9 C-2.125 5.625 -2.125 5.625 -2 2 C-1.34 1.34 -0.68 0.68 0 0 Z " fill="#567FA5" transform="translate(29,71)"/>
<path d="M0 0 C0.66 0.66 1.32 1.32 2 2 C1.9375 3.875 1.9375 3.875 1 6 C-1.5625 8.25 -1.5625 8.25 -4 10 C-2.66666667 6.66666667 -1.33333333 3.33333333 0 0 Z " fill="#608BB7" transform="translate(70,49)"/>
<path d="M0 0 C0.66 0.66 1.32 1.32 2 2 C1.34 2.66 0.68 3.32 0 4 C-2.475 3.01 -2.475 3.01 -5 2 C-4.34 3.65 -3.68 5.3 -3 7 C-3.99 7 -4.98 7 -6 7 C-6 5.02 -6 3.04 -6 1 C-3.125 0.375 -3.125 0.375 0 0 Z " fill="#E6F8FE" transform="translate(26,41)"/>
<path d="M0 0 C2.125 0.9375 2.125 0.9375 4 2 C3.67 3.32 3.34 4.64 3 6 C2.01 6 1.02 6 0 6 C0 4.68 0 3.36 0 2 C-0.66 1.67 -1.32 1.34 -2 1 C-1.34 0.67 -0.68 0.34 0 0 Z " fill="#337CBB" transform="translate(61,18)"/>
<path d="M0 0 C0.33 2.64 0.66 5.28 1 8 C0.01 8 -0.98 8 -2 8 C-2.33 5.69 -2.66 3.38 -3 1 C-1 0 -1 0 0 0 Z " fill="#E5F9FE" transform="translate(49,72)"/>
<path d="M0 0 C1.98 0 3.96 0 6 0 C6 1.32 6 2.64 6 4 C3.69 3.67 1.38 3.34 -1 3 C-0.67 2.01 -0.34 1.02 0 0 Z " fill="#8D8F8E" transform="translate(23,84)"/>
<path d="M0 0 C-0.66 1.32 -1.32 2.64 -2 4 C-3.65 4 -5.3 4 -7 4 C-7 3.01 -7 2.02 -7 1 C-4 0 -4 0 0 0 Z " fill="#9A9A9B" transform="translate(53,83)"/>
<path d="M0 0 C0.99 0 1.98 0 3 0 C3 1.98 3 3.96 3 6 C2.01 6.33 1.02 6.66 0 7 C0 4.69 0 2.38 0 0 Z " fill="#C9EAFB" transform="translate(21,73)"/>
<path d="M0 0 C-0.66 1.32 -1.32 2.64 -2 4 C-2.33 3.34 -2.66 2.68 -3 2 C-5.52733235 1.34444881 -5.52733235 1.34444881 -8 1 C-8 0.67 -8 0.34 -8 0 C-4.71303767 -0.79953138 -3.28976808 -1.09658936 0 0 Z " fill="#3774AC" transform="translate(74,47)"/>
<path d="M0 0 C0.763125 0.20625 1.52625 0.4125 2.3125 0.625 C2.3125 1.615 2.3125 2.605 2.3125 3.625 C-0.45026177 3.10231534 -3.0135876 2.51630413 -5.6875 1.625 C-2.6875 -0.375 -2.6875 -0.375 0 0 Z " fill="#467CAC" transform="translate(49.6875,45.375)"/>
<path d="M0 0 C1.32 0.33 2.64 0.66 4 1 C4 2.32 4 3.64 4 5 C2.68 4.67 1.36 4.34 0 4 C0 2.68 0 1.36 0 0 Z " fill="#73706E" transform="translate(49,18)"/>
<path d="M0 0 C1.65 0 3.3 0 5 0 C5.33 0.99 5.66 1.98 6 3 C5.01 3.33 4.02 3.66 3 4 C2.67 3.67 2.34 3.34 2 3 C1.01 3.495 1.01 3.495 0 4 C0 2.68 0 1.36 0 0 Z " fill="#969696" transform="translate(91,84)"/>
<path d="M0 0 C1.32 0 2.64 0 4 0 C4 1.32 4 2.64 4 4 C2.68 4 1.36 4 0 4 C-0.33 3.01 -0.66 2.02 -1 1 C-0.67 0.67 -0.34 0.34 0 0 Z " fill="#6E6B6A" transform="translate(62,32)"/>
<path d="M0 0 C2.97 0.495 2.97 0.495 6 1 C6 1.66 6 2.32 6 3 C4.02 3.33 2.04 3.66 0 4 C0 2.68 0 1.36 0 0 Z " fill="#7E827C" transform="translate(25,21)"/>
</svg>
