<?xml version="1.0" encoding="UTF-8"?>
<svg version="1.1" xmlns="http://www.w3.org/2000/svg" width="100" height="100">
<path d="M0 0 C33 0 66 0 100 0 C100 33 100 66 100 100 C67 100 34 100 0 100 C0 67 0 34 0 0 Z " fill="#010101" transform="translate(0,0)"/>
<path d="M0 0 C8.64194823 7.26387302 14.30592195 15.78484735 15.4609375 27.125 C15.88197688 36.62364831 12.89021454 46.36875167 7.24609375 54.015625 C0.29806987 61.48176156 -7.42142052 66.6361735 -17.73046875 67.25390625 C-29.56453447 67.5405842 -37.67689596 66.72021063 -47.00390625 58.828125 C-54.04395506 52.03198339 -58.34100604 46.60723199 -58.6484375 36.59375 C-58.7560187 33.96398737 -59.1949512 31.58345609 -59.75390625 29.015625 C-61.0612929 20.02734176 -56.29808986 11.87936146 -51.1171875 4.76953125 C-37.78301921 -9.72693742 -15.70176401 -11.31417889 0 0 Z " fill="#75787A" transform="translate(72.75390625,19.984375)"/>
<path d="M0 0 C12.17511378 0.88546282 19.66237183 6.47234042 28 15 C32.40529508 20.2863541 33.32102784 25.32344038 34 32 C33.67 32 33.34 32 33 32 C32.81824219 32.97839844 32.81824219 32.97839844 32.6328125 33.9765625 C31.71056011 38.78646342 30.69832723 43.39025465 29 48 C24.83757924 46.59002684 22.02337593 44.58863248 18.6875 41.75 C15.36998556 38.93011273 12.10558779 36.39856321 8.4375 34.0625 C5.45053368 31.82379612 4.41187272 30.21455048 3.625 26.5625 C3.38631582 24.71199556 3.18205209 22.8569313 3 21 C2.73922411 19.07901732 2.47818461 17.15806219 2.21044922 15.23803711 C1.94880229 13.33232068 1.70638418 11.42399405 1.46484375 9.515625 C1.04348422 6.32887226 0.54887465 3.16695818 0 0 Z " fill="#030304" transform="translate(51,17)"/>
<path d="M0 0 C0.87720703 0.35320313 1.75441406 0.70640625 2.65820312 1.0703125 C3.56119141 1.43898438 4.46417969 1.80765625 5.39453125 2.1875 C6.76641602 2.74050781 6.76641602 2.74050781 8.16601562 3.3046875 C14.83842604 6.00319739 14.83842604 6.00319739 17.20703125 7.1875 C16.54389689 12.41192343 14.60919016 14.3042828 10.6328125 17.5390625 C2.54906948 23.03236291 -6.19095729 24.33543661 -15.79296875 23.1875 C-23.47072853 21.43007287 -29.67934733 17.15145027 -34.79296875 11.1875 C-35.5390625 8.9375 -35.5390625 8.9375 -35.79296875 7.1875 C-30.76161693 4.98792996 -25.69022001 2.97351306 -20.54296875 1.0625 C-19.48335937 0.66611328 -19.48335937 0.66611328 -18.40234375 0.26171875 C-10.92619243 -2.52767862 -7.41419061 -3.00245936 0 0 Z " fill="#020203" transform="translate(58.79296875,59.8125)"/>
<path d="M0 0 C-0.19426875 3.31790571 -0.42326409 6.62577035 -0.70703125 9.9375 C-0.9304929 12.60623393 -0.98510649 15.11815899 -0.94921875 17.8125 C-1.13780371 24.05531252 -1.86425677 28.27597039 -6.4453125 32.66015625 C-9.80243458 35.52408371 -13.31750215 38.1255431 -16.96240234 40.61035156 C-18.97648488 41.98396261 -20.93366662 43.41902367 -22.89453125 44.8671875 C-26 47 -26 47 -28 47 C-31.03185532 37.70961601 -32.17617117 26.34173154 -27.8125 17.3125 C-26.92222364 15.84528478 -25.98819765 14.40313147 -25 13 C-24.61585937 12.41992188 -24.23171875 11.83984375 -23.8359375 11.2421875 C-18.04207062 3.39878948 -9.4136928 -0.1208292 0 0 Z " fill="#020303" transform="translate(48,18)"/>
<path d="M0 0 C0.33 0 0.66 0 1 0 C1 10.89 1 21.78 1 33 C2.98 32.34 4.96 31.68 7 31 C9.23828125 31.99462891 9.23828125 31.99462891 11.3125 33.7265625 C12.07820313 34.34660156 12.84390625 34.96664062 13.6328125 35.60546875 C14.41398437 36.27191406 15.19515625 36.93835937 16 37.625 C17.56114706 38.91049898 19.1236191 40.19439079 20.6875 41.4765625 C21.42226562 42.08661133 22.15703125 42.69666016 22.9140625 43.32519531 C25.50940072 45.40899917 28.18731992 47.22404495 31 49 C31.185625 47.7934375 31.185625 47.7934375 31.375 46.5625 C32.11554163 42.34141271 33.04401126 38.17664983 34 34 C34.99 34.495 34.99 34.495 36 35 C37.02267822 43.86321124 32.9257607 51.32557682 27.75 58.375 C20.30743608 65.47926556 11.93356959 69.31950131 1.625 69.125 C0.37976563 69.10695313 -0.86546875 69.08890625 -2.1484375 69.0703125 C-3.08945312 69.04710938 -4.03046875 69.02390625 -5 69 C-5.495 68.01 -5.495 68.01 -6 67 C-5.18917969 66.97421875 -4.37835938 66.9484375 -3.54296875 66.921875 C8.21279758 66.319717 16.52911182 64.00906539 25.3203125 56 C27.08700602 53.89640213 27.44606293 52.62931812 28 50 C24.56167367 47.96638835 21.11127102 45.95523327 17.6484375 43.96362305 C16.47340231 43.28373966 15.30177851 42.59792333 14.13378906 41.90600586 C12.44995316 40.90990362 10.75241141 39.9370868 9.0546875 38.96484375 C8.03874512 38.3730835 7.02280273 37.78132324 5.97607422 37.17163086 C2.37629604 35.75445814 0.686045 35.9179557 -3 37 C-5.80899068 38.29565487 -5.80899068 38.29565487 -8.546875 39.9765625 C-9.55621094 40.564375 -10.56554687 41.1521875 -11.60546875 41.7578125 C-13.16201172 42.68207031 -13.16201172 42.68207031 -14.75 43.625 C-16.82386183 44.8535791 -18.90178728 46.07533358 -20.984375 47.2890625 C-22.35674316 48.10431396 -22.35674316 48.10431396 -23.75683594 48.93603516 C-24.49708008 49.28714355 -25.23732422 49.63825195 -26 50 C-26.66 49.67 -27.32 49.34 -28 49 C-25.48206384 46.93394305 -22.96012466 44.87282869 -20.4375 42.8125 C-19.73302734 42.23435547 -19.02855469 41.65621094 -18.30273438 41.06054688 C-17.25375977 40.20493164 -17.25375977 40.20493164 -16.18359375 39.33203125 C-15.48556641 38.75332275 -14.78753906 38.17461426 -14.06835938 37.57836914 C-12 36 -12 36 -9.99414062 34.93530273 C-6.63292291 33.11668768 -5.27509469 31.86854402 -4.09643555 28.1472168 C-3.44639056 24.58054618 -2.9997782 21.04332054 -2.625 17.4375 C-2.32635859 14.99859519 -2.02691401 12.55978855 -1.7265625 10.12109375 C-1.60877441 9.0427124 -1.49098633 7.96433105 -1.36962891 6.85327148 C-1.06328191 4.48849117 -0.6439263 2.29109115 0 0 Z " fill="#D5D8DA" transform="translate(49,16)"/>
<path d="M0 0 C2.88427734 1.39868164 2.88427734 1.39868164 5.8359375 3.16015625 C6.89941406 3.78857422 7.96289062 4.41699219 9.05859375 5.06445312 C10.15300781 5.72380859 11.24742188 6.38316406 12.375 7.0625 C13.49261719 7.72572266 14.61023438 8.38894531 15.76171875 9.07226562 C18.51291926 10.70652576 21.25865159 12.34928534 24 14 C23.34 15.32 22.68 16.64 22 18 C22 17.01 22 16.02 22 15 C20.824375 14.62875 19.64875 14.2575 18.4375 13.875 C14.66103647 12.65197469 11.08348977 11.15458083 7.45922852 9.53857422 C-0.31938754 6.05704922 -0.31938754 6.05704922 -8.54296875 6.94921875 C-9.35378906 7.29597656 -10.16460937 7.64273438 -11 8 C-12.24496426 8.4885651 -13.49117788 8.97395254 -14.73828125 9.45703125 C-17.38807418 10.49274358 -20.01972328 11.56283308 -22.64453125 12.66015625 C-25.12963121 13.65246042 -27.39247262 14.4679856 -30 15 C-30 15.99 -30 16.98 -30 18 C-30.99 17.67 -31.98 17.34 -33 17 C-30.73519124 10.877467 -24.13631192 8.68291813 -18.75 5.6875 C-17.61691406 5.02943359 -16.48382813 4.37136719 -15.31640625 3.69335938 C-14.21683594 3.07654297 -13.11726563 2.45972656 -11.984375 1.82421875 C-10.98116211 1.25791748 -9.97794922 0.69161621 -8.94433594 0.1081543 C-5.36665716 -1.23837008 -3.64789131 -1.06607762 0 0 Z " fill="#3A4146" transform="translate(54,52)"/>
<path d="M0 0 C3.9697961 3.21666103 5.8474154 5.08203082 6.515625 10.28515625 C5.87625 9.58390625 5.236875 8.88265625 4.578125 8.16015625 C-2.66054877 0.96237895 -11.10806534 -3.77562736 -21.359375 -4.08984375 C-31.8336045 -3.7736406 -40.60250748 -0.446594 -48.16796875 6.92578125 C-53.3133583 13.07351942 -55.75585662 20.8542977 -58.484375 28.28515625 C-58.814375 28.28515625 -59.144375 28.28515625 -59.484375 28.28515625 C-60.03737424 19.43716848 -55.95580905 12.05734244 -50.84765625 5.03515625 C-37.54649895 -9.39321777 -15.83004255 -10.92671176 0 0 Z " fill="#DDE0E1" transform="translate(72.484375,19.71484375)"/>
<path d="M0 0 C0.33 0 0.66 0 1 0 C1.09796875 0.89460938 1.1959375 1.78921875 1.296875 2.7109375 C2.15445134 9.64547718 3.30192839 15.73125819 6.1953125 22.109375 C7 24 7 24 7 26 C8.96243186 27.74405148 10.9162264 29.35012124 13 30.9375 C13.59071289 31.39261963 14.18142578 31.84773926 14.79003906 32.31665039 C19.03206327 35.49469338 22.95491641 37.35064575 28 39 C28.33 39.99 28.66 40.98 29 42 C28.154375 41.855625 27.30875 41.71125 26.4375 41.5625 C23.04597938 40.91252703 23.04597938 40.91252703 19.75 41 C11.71955735 38.85854863 5.35503058 31.30452236 1.046875 24.39453125 C-0.85118809 20.05306604 -0.84018899 15.67083985 -1 11 C-1.226875 9.88625 -1.45375 8.7725 -1.6875 7.625 C-2.05844608 4.50905295 -1.38764095 2.7752819 0 0 Z " fill="#919597" transform="translate(15,43)"/>
<path d="M0 0 C3.67836657 3.67836657 4.12198915 9.26849839 4.3125 14.3125 C4.04312094 24.09432714 0.66115026 33.99126875 -6.04296875 41.1953125 C-14.58733492 49.16613258 -22.25052707 52.17484005 -33.75 52.25 C-34.5234375 52.270625 -35.296875 52.29125 -36.09375 52.3125 C-41.72138278 52.35026935 -45.83608867 51.24005286 -51 49 C-50.67 48.34 -50.34 47.68 -50 47 C-49.01386719 47.32097656 -48.02773438 47.64195313 -47.01171875 47.97265625 C-36.90930818 50.83767045 -25.82871169 50.01282225 -16.44921875 45.40625 C-7.91513779 40.50629921 -3.17937533 33.18152389 -0.125 23.875 C1.9805551 15.91104748 0.8321931 8.0841615 0 0 Z " fill="#3A4044" transform="translate(84,35)"/>
<path d="M0 0 C0.66 0.33 1.32 0.66 2 1 C3.02267822 9.86321124 -1.0742393 17.32557682 -6.25 24.375 C-13.69256392 31.47926556 -22.06643041 35.31950131 -32.375 35.125 C-33.62023438 35.10695312 -34.86546875 35.08890625 -36.1484375 35.0703125 C-37.08945312 35.04710937 -38.03046875 35.02390625 -39 35 C-39.33 34.34 -39.66 33.68 -40 33 C-39.18917969 32.97421875 -38.37835938 32.9484375 -37.54296875 32.921875 C-25.78720242 32.319717 -17.47088818 30.00906539 -8.6796875 22 C-6.66363133 19.89607758 -6.66363133 19.89607758 -6 16 C-10.455 13.525 -10.455 13.525 -15 11 C-13.68 10.34 -12.36 9.68 -11 9 C-8.36 10.98 -5.72 12.96 -3 15 C-2.814375 13.7934375 -2.814375 13.7934375 -2.625 12.5625 C-1.88445837 8.34141271 -0.95598874 4.17664983 0 0 Z " fill="#C9CDCF" transform="translate(83,50)"/>
<path d="M0 0 C0.33 0.66 0.66 1.32 1 2 C0.443125 2.09796875 -0.11375 2.1959375 -0.6875 2.296875 C-11.75961575 4.46641119 -18.27160141 9.02006188 -24.88671875 18.15625 C-27.89729309 23.14218364 -28.38089936 27.62190387 -28.625 33.3125 C-28.66367187 34.05306641 -28.70234375 34.79363281 -28.7421875 35.55664062 C-28.83581705 37.37071309 -28.91896851 39.18532116 -29 41 C-29.33 41 -29.66 41 -30 41 C-31.2381686 30.15256642 -31.89274432 21.85424993 -25.265625 12.5703125 C-18.47710982 4.28832398 -10.75516224 -0.24443551 0 0 Z " fill="#414548" transform="translate(47,16)"/>
<path d="M0 0 C5.40476918 8.10715377 4.96241103 20.4850884 6 30 C3 32 3 32 0 32 C0 21.44 0 10.88 0 0 Z " fill="#818689" transform="translate(50,17)"/>
<path d="M0 0 C0.33 0 0.66 0 1 0 C1 11.22 1 22.44 1 34 C0.01 33.67 -0.98 33.34 -2 33 C-6.47146519 24.05706961 -2.04627956 9.26915918 0 0 Z " fill="#DEE1E2" transform="translate(49,16)"/>
<path d="M0 0 C0.495 1.485 0.495 1.485 1 3 C-0.20290011 3.79989804 -1.41266295 4.58947824 -2.625 5.375 C-3.29789063 5.81585938 -3.97078125 6.25671875 -4.6640625 6.7109375 C-10.37293519 9.86131875 -15.50247422 10.33909652 -21.875 10.3125 C-23.02162109 10.33666992 -23.02162109 10.33666992 -24.19140625 10.36132812 C-29.76179105 10.3660568 -33.88709313 9.20705206 -39 7 C-38.67 6.34 -38.34 5.68 -38 5 C-36.52080078 5.48146484 -36.52080078 5.48146484 -35.01171875 5.97265625 C-24.64905927 8.91147628 -13.86940421 7.82714751 -4.22265625 3.2890625 C-1.89502239 2.06630677 -1.89502239 2.06630677 0 0 Z " fill="#575C5E" transform="translate(72,77)"/>
<path d="M0 0 C-0.66 1.32 -1.32 2.64 -2 4 C-2 3.01 -2 2.02 -2 1 C-3.65 1.66 -5.3 2.32 -7 3 C-7 3.66 -7 4.32 -7 5 C-7.80824219 5.39832031 -8.61648437 5.79664063 -9.44921875 6.20703125 C-10.51785156 6.73683594 -11.58648437 7.26664063 -12.6875 7.8125 C-14.27111328 8.59560547 -14.27111328 8.59560547 -15.88671875 9.39453125 C-17.87446806 10.4195814 -19.83415166 11.5023868 -21.75 12.65625 C-23.87980098 13.92821447 -25.57780207 14.55144483 -28 15 C-28 15.99 -28 16.98 -28 18 C-28.99 17.67 -29.98 17.34 -31 17 C-28.91508457 11.32595164 -23.40596354 9.42584425 -18.38769531 6.66186523 C-16.62846918 5.68941766 -14.88457594 4.69288706 -13.140625 3.69335938 C-12.03460938 3.07654297 -10.92859375 2.45972656 -9.7890625 1.82421875 C-8.77537598 1.25791748 -7.76168945 0.69161621 -6.71728516 0.1081543 C-3.8489402 -1.06160471 -2.81189557 -1.16121649 0 0 Z " fill="#525A5F" transform="translate(52,52)"/>
<path d="M0 0 C0.33 0 0.66 0 1 0 C1.12117188 0.95261719 1.24234375 1.90523437 1.3671875 2.88671875 C1.53476562 4.14097656 1.70234375 5.39523438 1.875 6.6875 C2.03742187 7.92886719 2.19984375 9.17023437 2.3671875 10.44921875 C2.92613706 13.58554685 3.79014756 16.08057346 5 19 C4.66666667 20.33333333 4.33333333 21.66666667 4 23 C4.86454438 25.70465742 4.86454438 25.70465742 6 28 C5.34 28.33 4.68 28.66 4 29 C0.42276292 23.80723649 -0.50039629 19.85682037 -0.84375 13.58203125 C-0.94862032 10.84944633 -0.94862032 10.84944633 -1.6875 7.625 C-2.05844608 4.50905295 -1.38764095 2.7752819 0 0 Z " fill="#666B6F" transform="translate(15,43)"/>
<path d="M0 0 C0.99 0.33 1.98 0.66 3 1 C-4.78636067 8.26726996 -12.95476634 9.44911145 -23.2890625 9.140625 C-24.18367188 9.09421875 -25.07828125 9.0478125 -26 9 C-26.33 8.34 -26.66 7.68 -27 7 C-26.18917969 6.97421875 -25.37835938 6.9484375 -24.54296875 6.921875 C-15.58743446 6.46315147 -7.56401938 5.04267959 0 0 Z " fill="#D3D4D6" transform="translate(70,76)"/>
<path d="M0 0 C7.97723431 0.36260156 16.30074633 4.15629765 22.1875 9.5625 C24.09739298 12.13097677 24.72854024 13.8329695 25 17 C24.0409375 15.948125 24.0409375 15.948125 23.0625 14.875 C16.0937037 8.00353326 8.314129 4.67919108 -1 2 C-0.67 1.34 -0.34 0.68 0 0 Z " fill="#C7CBCD" transform="translate(54,13)"/>
<path d="M0 0 C0.99 0.33 1.98 0.66 3 1 C1.76302083 2.66015625 0.52604167 4.3203125 -0.7109375 5.98046875 C-3.90707912 10.98775729 -4.3766335 15.52245586 -4.625 21.3125 C-4.66367187 22.05306641 -4.70234375 22.79363281 -4.7421875 23.55664062 C-4.83581705 25.37071309 -4.91896851 27.18532116 -5 29 C-5.33 29 -5.66 29 -6 29 C-8.04900825 11.04890601 -8.04900825 11.04890601 -3 3 C-1.359375 1.23828125 -1.359375 1.23828125 0 0 Z " fill="#393D40" transform="translate(23,28)"/>
<path d="M0 0 C6.80315007 6.5763784 7.6851335 13.36812437 8.125 22.6328125 C8.125 24.42236014 8.07012444 26.21182683 8 28 C6.4375 26.1875 6.4375 26.1875 5 24 C5.33 23.01 5.66 22.02 6 21 C5.37837966 15.03975789 3.14765449 9.5304789 0.8046875 4.06640625 C0 2 0 2 0 0 Z " fill="#7D8588" transform="translate(78,26)"/>
<path d="M0 0 C0.66 0.66 1.32 1.32 2 2 C-0.96064721 8.78481651 -4.90578553 13.65849356 -10 19 C-10.33 18.01 -10.66 17.02 -11 16 C-9.70703125 13.984375 -9.70703125 13.984375 -7.8125 11.75 C-4.72961685 7.98271679 -2.28281351 4.29168939 0 0 Z " fill="#313639" transform="translate(84,61)"/>
<path d="M0 0 C-0.03515625 2.2890625 -0.03515625 2.2890625 -1 5 C-3.54328596 6.41126848 -5.73391249 7.41139448 -8.4375 8.375 C-9.13166016 8.64699219 -9.82582031 8.91898438 -10.54101562 9.19921875 C-12.33362396 9.87600215 -14.16567583 10.44616319 -16 11 C-16.66 10.67 -17.32 10.34 -18 10 C-16.40089132 8.99193149 -14.79551738 7.99379615 -13.1875 7 C-11.84751953 6.1646875 -11.84751953 6.1646875 -10.48046875 5.3125 C-8 4 -8 4 -5 4 C-5 3.34 -5 2.68 -5 2 C-2 0 -2 0 0 0 Z " fill="#262F35" transform="translate(50,53)"/>
<path d="M0 0 C0.33 0 0.66 0 1 0 C1.99 7.92 2.98 15.84 4 24 C2.68 24.33 1.36 24.66 0 25 C0 16.75 0 8.5 0 0 Z " fill="#494E53" transform="translate(52,23)"/>
<path d="M0 0 C12.19359331 3.55153203 12.19359331 3.55153203 15 5 C15.33 5.99 15.66 6.98 16 8 C10.26216456 7.55862804 5.70482884 5.17947381 1 2 C0.67 1.34 0.34 0.68 0 0 Z " fill="#B7BBBD" transform="translate(28,77)"/>
<path d="M0 0 C4.36921847 5.36222266 5.31644283 10.27835445 6 17 C5.01 16.67 4.02 16.34 3 16 C2.0859375 13.3828125 2.0859375 13.3828125 1.375 10.125 C0.34310327 5.51987267 0.34310327 5.51987267 -1 1 C-0.67 0.67 -0.34 0.34 0 0 Z " fill="#32383C" transform="translate(79,32)"/>
<path d="M0 0 C2.27474277 3.41211416 2.56629644 5.6568529 3.125 9.6875 C3.29257813 10.86699219 3.46015625 12.04648437 3.6328125 13.26171875 C3.75398437 14.16535156 3.87515625 15.06898437 4 16 C3.34 16.33 2.68 16.66 2 17 C0.30167391 11.16200408 -0.25287193 6.06892629 0 0 Z " fill="#242C31" transform="translate(12,46)"/>
<path d="M0 0 C0.99 0 1.98 0 3 0 C2.54965877 1.62723299 2.08944646 3.25173664 1.625 4.875 C1.36976562 5.77992187 1.11453125 6.68484375 0.8515625 7.6171875 C0 10 0 10 -2 12 C-2.17835515 7.45194365 -1.99785435 4.1205746 0 0 Z " fill="#BDC0C1" transform="translate(15,36)"/>
<path d="M0 0 C-2.97180943 1.89865603 -5.51460083 3.35455571 -9 4 C-9 4.99 -9 5.98 -9 7 C-9.99 6.67 -10.98 6.34 -12 6 C-10.9200311 2.86809018 -9.99049526 1.99400788 -7.125 0.1875 C-4.02316031 -0.99119908 -2.9798555 -1.26070809 0 0 Z " fill="#45494E" transform="translate(33,63)"/>
<path d="M0 0 C0.66 0 1.32 0 2 0 C1.39305845 3.15330554 0.3583335 5.18888867 -1.5625 7.75 C-2.24505859 8.67039062 -2.24505859 8.67039062 -2.94140625 9.609375 C-3.29074219 10.06828125 -3.64007812 10.5271875 -4 11 C-5 8 -5 8 -4.07421875 5.95703125 C-3.61660156 5.24933594 -3.15898437 4.54164062 -2.6875 3.8125 C-2.23761719 3.09707031 -1.78773437 2.38164062 -1.32421875 1.64453125 C-0.88722656 1.10183594 -0.45023438 0.55914063 0 0 Z " fill="#D1D6D8" transform="translate(21,26)"/>
<path d="M0 0 C-0.33 0.66 -0.66 1.32 -1 2 C-4.14930893 3.04976964 -6.38814456 3.10131595 -9.6875 3.0625 C-10.68136719 3.05347656 -11.67523438 3.04445313 -12.69921875 3.03515625 C-13.83810547 3.01775391 -13.83810547 3.01775391 -15 3 C-15 2.67 -15 2.34 -15 2 C-12.87707704 1.47076428 -10.75157949 0.95184623 -8.625 0.4375 C-7.44164062 0.14746094 -6.25828125 -0.14257812 -5.0390625 -0.44140625 C-2 -1 -2 -1 0 0 Z " fill="#52565A" transform="translate(63,84)"/>
<path d="M0 0 C1.98 1.32 3.96 2.64 6 4 C5.01 4.99 4.02 5.98 3 7 C0.97954558 6.39816251 -1.02111039 5.72693904 -3 5 C-3.33 4.34 -3.66 3.68 -4 3 C-2.68 3 -1.36 3 0 3 C0 2.01 0 1.02 0 0 Z " fill="#CED1D1" transform="translate(58,49)"/>
<path d="M0 0 C0.33 0 0.66 0 1 0 C1 4.95 1 9.9 1 15 C-1.2985113 10.4029774 -2.69448102 7.1297418 -1.0625 2.125 C-0.711875 1.42375 -0.36125 0.7225 0 0 Z " fill="#727D83" transform="translate(15,43)"/>
<path d="M0 0 C1.9375 0.75 1.9375 0.75 4 2 C4.75 4.125 4.75 4.125 5 6 C3.35 5.67 1.7 5.34 0 5 C0 4.34 0 3.68 0 3 C-0.66 2.67 -1.32 2.34 -2 2 C-1.34 1.34 -0.68 0.68 0 0 Z " fill="#E7E9EB" transform="translate(54,47)"/>
<path d="M0 0 C-5.14285714 4.42857143 -5.14285714 4.42857143 -9 5 C-8 2 -8 2 -5.625 0.25 C-3 -1 -3 -1 0 0 Z " fill="#DBE0E2" transform="translate(73,77)"/>
<path d="M0 0 C5.78461538 4.30769231 5.78461538 4.30769231 6.875 7.8125 C6.936875 8.8953125 6.936875 8.8953125 7 10 C4.33333333 7.33333333 1.66666667 4.66666667 -1 2 C-0.67 1.34 -0.34 0.68 0 0 Z " fill="#AFB1B3" transform="translate(72,20)"/>
<path d="M0 0 C6.75 0.875 6.75 0.875 9 2 C9 2.66 9 3.32 9 4 C5.7 3.34 2.4 2.68 -1 2 C-0.67 1.34 -0.34 0.68 0 0 Z " fill="#D2D6D6" transform="translate(54,13)"/>
<path d="M0 0 C2.88437779 1.29299694 4.87219421 2.65941363 7 5 C6.01 5.495 6.01 5.495 5 6 C2.5249829 4.88568235 0.32116581 3.41849022 -2 2 C-1.34 1.34 -0.68 0.68 0 0 Z " fill="#C1C5C8" transform="translate(70,59)"/>
<path d="M0 0 C3.465 1.98 3.465 1.98 7 4 C7 4.66 7 5.32 7 6 C3.20411134 5.45773019 1.52788007 3.79872437 -1 1 C-0.67 0.67 -0.34 0.34 0 0 Z " fill="#85888A" transform="translate(27,77)"/>
<path d="M0 0 C0.99 0.33 1.98 0.66 3 1 C-0.465 3.97 -0.465 3.97 -4 7 C-3.04065919 3.16263678 -2.76390737 2.40339772 0 0 Z " fill="#1F2428" transform="translate(77,73)"/>
<path d="M0 0 C3.93846154 3.32307692 3.93846154 3.32307692 4.25 6.75 C4.1675 7.4925 4.085 8.235 4 9 C1.47740939 7.02579865 1.0070192 6.03254358 0.3125 2.8125 C0.209375 1.884375 0.10625 0.95625 0 0 Z " fill="#898D8F" transform="translate(78,26)"/>
<path d="M0 0 C3.3 0.99 6.6 1.98 10 3 C10 3.33 10 3.66 10 4 C7.25 4.25 7.25 4.25 4 4 C1.625 2 1.625 2 0 0 Z " fill="#A7ABAD" transform="translate(28,77)"/>
<path d="M0 0 C1.98 0.99 1.98 0.99 4 2 C4 4.31 4 6.62 4 9 C3.34 9 2.68 9 2 9 C1.855625 8.2575 1.71125 7.515 1.5625 6.75 C1.09812508 4.47972261 0.58136431 2.24240521 0 0 Z " fill="#979B9F" transform="translate(18,64)"/>
</svg>
