<?xml version="1.0" encoding="UTF-8"?>
<svg version="1.1" xmlns="http://www.w3.org/2000/svg" width="100" height="100">
<path d="M0 0 C33 0 66 0 100 0 C100 33 100 66 100 100 C67 100 34 100 0 100 C0 67 0 34 0 0 Z " fill="#FCFDFD" transform="translate(0,0)"/>
<path d="M0 0 C6.89473265 0.15619135 14.90613984 1.41632315 20.0625 6.3125 C20.97927314 13.77765267 19.20441652 21.1320785 15 27.375 C12.53271934 29.84228066 11.68275205 30.28812809 8.17333984 30.42602539 C6.96887207 30.42078857 5.7644043 30.41555176 4.5234375 30.41015625 C3.22148437 30.40693359 1.91953125 30.40371094 0.578125 30.40039062 C-0.80208399 30.39203466 -2.18229232 30.38356971 -3.5625 30.375 C-4.95051926 30.36998501 -6.33854022 30.3654221 -7.7265625 30.36132812 C-11.13025132 30.34950976 -14.53385439 30.33303434 -17.9375 30.3125 C-18.8929462 27.22032232 -19.0979578 25.71777462 -17.8894043 22.6652832 C-17.35226807 21.74062256 -16.81513184 20.81596191 -16.26171875 19.86328125 C-15.68099609 18.85072266 -15.10027344 17.83816406 -14.50195312 16.79492188 C-13.88255859 15.74884766 -13.26316406 14.70277344 -12.625 13.625 C-12.01720703 12.56732422 -11.40941406 11.50964844 -10.78320312 10.41992188 C-4.97305078 0.39468657 -4.97305078 0.39468657 0 0 Z " fill="#47BBC4" transform="translate(26.9375,49.6875)"/>
<path d="M0 0 C4.55414093 2.02406263 6.81261776 4.55686422 9 9 C10.39452425 17.1817793 7.57714275 24.88101866 5.0625 32.5625 C4.50272461 34.34237305 4.50272461 34.34237305 3.93164062 36.15820312 C1.17522321 44.82477679 1.17522321 44.82477679 0 46 C-7.18581862 46.57030306 -12.58805211 45.32112235 -19 42 C-19.66 41.34 -20.32 40.68 -21 40 C-20.93305807 33.88915775 -17.4534134 29.03541661 -14.4375 23.9375 C-13.62974121 22.54881714 -13.62974121 22.54881714 -12.80566406 21.13208008 C-8.65067782 14.01818369 -4.39538996 6.96798585 0 0 Z " fill="#48BBC4" transform="translate(49,3)"/>
<path d="M0 0 C10.68470791 0.12281273 22.94375631 4.18981889 30.9375 11.375 C33.25346709 14.05498014 33.90393193 14.94700708 34.1875 18.5625 C33.9375 21.375 33.9375 21.375 32.9375 22.375 C30.59427043 22.48846204 28.28170681 22.53917947 25.9375 22.54296875 C25.22779053 22.54629715 24.51808105 22.54962555 23.78686523 22.55305481 C22.27702483 22.55813131 20.76717315 22.56046291 19.25732422 22.56030273 C16.9747382 22.56246473 14.69265504 22.58054316 12.41015625 22.59960938 C5.0124221 22.62733564 -1.89531854 22.43556467 -9.0625 20.375 C-9.53107004 13.11216432 -8.28824137 7.90421144 -5.0625 1.375 C-3.52379279 -0.16370721 -2.15175942 0.09339857 0 0 Z " fill="#45BBC4" transform="translate(58.0625,57.625)"/>
<path d="M0 0 C0.66 0 1.32 0 2 0 C2.94359375 1.70542969 2.94359375 1.70542969 3.90625 3.4453125 C4.77075407 5.00525226 5.63534353 6.56514471 6.5 8.125 C6.94907715 8.93654541 7.3981543 9.74809082 7.86083984 10.58422852 C10.02157116 14.47912047 12.1966595 18.36211224 14.4453125 22.20703125 C14.81462891 22.84044434 15.18394531 23.47385742 15.56445312 24.12646484 C16.57167915 25.84644703 17.58641483 27.56202506 18.6015625 29.27734375 C20 32 20 32 20 35 C14.41095099 34.39085646 9.07362006 33.43743321 3.625 32.0625 C2.91472656 31.89298828 2.20445313 31.72347656 1.47265625 31.54882812 C-3.75580752 30.24419248 -3.75580752 30.24419248 -6 28 C-7.69268669 18.6991321 -4.19011564 9.59762313 -1 1 C-0.67 0.67 -0.34 0.34 0 0 Z " fill="#49BBC4" transform="translate(62,23)"/>
<path d="M0 0 C0.66 0.33 1.32 0.66 2 1 C1.566875 2.32451172 1.566875 2.32451172 1.125 3.67578125 C-2.33534149 14.64131922 -2.33534149 14.64131922 -2 26 C0.95156958 27.96771305 2.70699857 28.54257772 6.10546875 29.2890625 C7.08837891 29.50820313 8.07128906 29.72734375 9.08398438 29.953125 C10.10814453 30.17484375 11.13230469 30.3965625 12.1875 30.625 C13.22326172 30.85445312 14.25902344 31.08390625 15.32617188 31.3203125 C17.88292611 31.88586182 20.44082691 32.44551778 23 33 C23.495 32.01 23.495 32.01 24 31 C24 31.99 24 32.98 24 34 C21.69 34 19.38 34 17 34 C17 34.66 17 35.32 17 36 C17.99 36.495 17.99 36.495 19 37 C11.64788732 36.23943662 11.64788732 36.23943662 8.125 34.9375 C3.73882033 33.6216461 -0.45457206 33.83830493 -5 34 C-7.45417612 39.673142 -9.46246904 44.81839396 -10 51 C-10.33 51 -10.66 51 -11 51 C-11.33 48.36 -11.66 45.72 -12 43 C-12.66 45.64 -13.32 48.28 -14 51 C-14.66 51 -15.32 51 -16 51 C-15.7834375 50.2265625 -15.566875 49.453125 -15.34375 48.65625 C-12.92518603 39.93107662 -12.92518603 39.93107662 -13 31 C-17.12590566 27.64719303 -21.71503696 27.09442434 -26.8125 26.3125 C-27.60076172 26.18294922 -28.38902344 26.05339844 -29.20117188 25.91992188 C-31.13259813 25.60387031 -33.06611445 25.30063711 -35 25 C-35 24.67 -35 24.34 -35 24 C-32.52103819 23.82966643 -30.04190368 23.66367161 -27.5625 23.5 C-26.87478516 23.45230469 -26.18707031 23.40460937 -25.47851562 23.35546875 C-20.28404813 23.01722436 -15.23206782 23 -10 23 C-7.69 15.74 -5.38 8.48 -3 1 C-2.34 1.66 -1.68 2.32 -1 3 C-0.67 2.01 -0.34 1.02 0 0 Z " fill="#EEFCFC" transform="translate(59,25)"/>
<path d="M0 0 C1.32 0.33 2.64 0.66 4 1 C4 1.66 4 2.32 4 3 C3.01 3 2.02 3 1 3 C1 4.32 1 5.64 1 7 C2.32 7 3.64 7 5 7 C5 5.35 5 3.7 5 2 C8.88348484 0.70550505 11.90697336 0.86796688 16 1 C17 2 17 2 17.09765625 4.50390625 C17.08605469 5.51324219 17.07445313 6.52257812 17.0625 7.5625 C17.05347656 8.57441406 17.04445313 9.58632812 17.03515625 10.62890625 C17.02355469 11.41136719 17.01195313 12.19382812 17 13 C11.38111323 13.82818059 6.64518489 13.94086415 1 13 C-1.33303944 12.96296763 -3.66715242 12.95239087 -6 13 C-5.34 12.67 -4.68 12.34 -4 12 C-3.53348793 9.87423218 -3.53348793 9.87423218 -3.375 7.4375 C-3.30023438 6.61121094 -3.22546875 5.78492187 -3.1484375 4.93359375 C-3.09945312 4.29550781 -3.05046875 3.65742187 -3 3 C-5.31 3 -7.62 3 -10 3 C-10 4.65 -10 6.3 -10 8 C-10.33 8 -10.66 8 -11 8 C-11 6.02 -11 4.04 -11 2 C-9.52093108 1.97310784 -8.04172517 1.95365379 -6.5625 1.9375 C-5.73878906 1.92589844 -4.91507813 1.91429688 -4.06640625 1.90234375 C-2 2 -2 2 -1 3 C-0.67 2.01 -0.34 1.02 0 0 Z " fill="#E7E7E7" transform="translate(60,84)"/>
<path d="M0 0 C6.27 0 12.54 0 19 0 C20 5 20 5 20 7 C13.26257354 7.11044961 6.70019789 6.70132913 0 6 C1.32 4.68 2.64 3.36 4 2 C2.68 1.34 1.36 0.68 0 0 Z " fill="#B9B9B9" transform="translate(19,86)"/>
<path d="M0 0 C0.55268555 0.30341309 1.10537109 0.60682617 1.67480469 0.91943359 C4.18038774 2.08382992 6.50682293 2.69336786 9.203125 3.2890625 C10.1828125 3.50820313 11.1625 3.72734375 12.171875 3.953125 C13.18765625 4.17484375 14.2034375 4.3965625 15.25 4.625 C16.28125 4.85445312 17.3125 5.08390625 18.375 5.3203125 C20.91566634 5.88490502 23.45730703 6.44461898 26 7 C26.33 6.34 26.66 5.68 27 5 C27 5.99 27 6.98 27 8 C24.69 8 22.38 8 20 8 C20 8.66 20 9.32 20 10 C20.66 10.33 21.32 10.66 22 11 C14.72755418 10.24767802 14.72755418 10.24767802 11.0625 9 C7.08014105 7.69963789 3.15922074 7.35122308 -1 7 C0 5 0 5 3 4 C2.01 3.34 1.02 2.68 0 2 C0 1.34 0 0.68 0 0 Z " fill="#D5F4F6" transform="translate(56,51)"/>
<path d="M0 0 C0.33 0 0.66 0 1 0 C1 3.63 1 7.26 1 11 C1.66 10.34 2.32 9.68 3 9 C3 9.99 3 10.98 3 12 C5.97 12.495 5.97 12.495 9 13 C8.01 13.495 8.01 13.495 7 14 C7 14.66 7 15.32 7 16 C9.64 16 12.28 16 15 16 C15 16.66 15 17.32 15 18 C16.98 18 18.96 18 21 18 C21 18.66 21 19.32 21 20 C21.66 20 22.32 20 23 20 C22.484375 19.2575 21.96875 18.515 21.4375 17.75 C20 15 20 15 20.3125 12.6875 C20.539375 12.130625 20.76625 11.57375 21 11 C25 17.625 25 17.625 25 21 C19.41095099 20.39085646 14.07362006 19.43743321 8.625 18.0625 C7.91472656 17.89298828 7.20445313 17.72347656 6.47265625 17.54882812 C1.24419248 16.24419248 1.24419248 16.24419248 -1 14 C-1.23046875 11.50390625 -1.23046875 11.50390625 -1.1875 8.5625 C-1.18105469 7.59441406 -1.17460938 6.62632813 -1.16796875 5.62890625 C-1 3 -1 3 0 0 Z " fill="#5ABBC1" transform="translate(57,37)"/>
<path d="M0 0 C0.33 0 0.66 0 1 0 C1.33 3.63 1.66 7.26 2 11 C9.95885231 12.23320758 17.96384379 12.33912148 26 12.5625 C27.45704157 12.60577365 28.91407299 12.6493905 30.37109375 12.69335938 C33.91395412 12.79953302 37.45692963 12.90105111 41 13 C41 13.33 41 13.66 41 14 C36.46510373 14.04986353 31.9303711 14.08593637 27.39526367 14.10986328 C25.85617285 14.11985006 24.31710065 14.13344419 22.77807617 14.15087891 C14.62298961 14.24087337 6.91023636 14.28577933 -1 12 C-1.125 3.375 -1.125 3.375 0 0 Z " fill="#5DC0C9" transform="translate(50,66)"/>
<path d="M0 0 C2.31 0 4.62 0 7 0 C6.67 2.97 6.34 5.94 6 9 C3.69 9.33 1.38 9.66 -1 10 C-0.67 6.7 -0.34 3.4 0 0 Z " fill="#F4F4F4" transform="translate(50,87)"/>
<path d="M0 0 C1.32 0.33 2.64 0.66 4 1 C4 1.66 4 2.32 4 3 C3.01 3 2.02 3 1 3 C1 4.32 1 5.64 1 7 C2.32 7 3.64 7 5 7 C5 5.35 5 3.7 5 2 C5.66 2 6.32 2 7 2 C7 3.98 7 5.96 7 8 C5.02 8 3.04 8 1 8 C1 8.66 1 9.32 1 10 C-0.65 10 -2.3 10 -4 10 C-3.67 7.69 -3.34 5.38 -3 3 C-5.31 3 -7.62 3 -10 3 C-10 4.65 -10 6.3 -10 8 C-10.33 8 -10.66 8 -11 8 C-11 6.02 -11 4.04 -11 2 C-9.52093108 1.97310784 -8.04172517 1.95365379 -6.5625 1.9375 C-5.73878906 1.92589844 -4.91507813 1.91429688 -4.06640625 1.90234375 C-2 2 -2 2 -1 3 C-0.67 2.01 -0.34 1.02 0 0 Z " fill="#ACACAC" transform="translate(60,84)"/>
<path d="M0 0 C0 0.33 0 0.66 0 1 C-1.98 1 -3.96 1 -6 1 C-5.67 1.99 -5.34 2.98 -5 4 C-14.405 2.515 -14.405 2.515 -24 1 C-24 0.67 -24 0.34 -24 0 C-15.83325905 -0.94120241 -8.16674095 -0.94120241 0 0 Z " fill="#D9F6F8" transform="translate(48,49)"/>
<path d="M0 0 C2.64 0 5.28 0 8 0 C8 1.98 8 3.96 8 6 C5.03 6 2.06 6 -1 6 C-0.67 4.02 -0.34 2.04 0 0 Z " fill="#AAAAAA" transform="translate(69,86)"/>
<path d="M0 0 C2.05078125 0.03255208 4.1015625 0.06510417 6.15234375 0.09765625 C6.15234375 1.08765625 6.15234375 2.07765625 6.15234375 3.09765625 C3.51234375 3.09765625 0.87234375 3.09765625 -1.84765625 3.09765625 C-1.84765625 4.41765625 -1.84765625 5.73765625 -1.84765625 7.09765625 C1.12234375 7.09765625 4.09234375 7.09765625 7.15234375 7.09765625 C3.94854358 9.23352303 3.13294408 9.328978 -0.53515625 9.22265625 C-1.74751953 9.19558594 -1.74751953 9.19558594 -2.984375 9.16796875 C-3.90669922 9.13316406 -3.90669922 9.13316406 -4.84765625 9.09765625 C-4.84765625 8.43765625 -4.84765625 7.77765625 -4.84765625 7.09765625 C-4.18765625 7.09765625 -3.52765625 7.09765625 -2.84765625 7.09765625 C-2.86828125 6.12828125 -2.88890625 5.15890625 -2.91015625 4.16015625 C-2.82830587 0.14948763 -2.82830587 0.14948763 0 0 Z " fill="#EEEEEE" transform="translate(69.84765625,84.90234375)"/>
<path d="M0 0 C1.66666667 0 3.33333333 0 5 0 C4.34 3.96 3.68 7.92 3 12 C2.67 12 2.34 12 2 12 C1.67 9.36 1.34 6.72 1 4 C0.34 6.64 -0.32 9.28 -1 12 C-1.66 12 -2.32 12 -3 12 C-2.01 8.04 -1.02 4.08 0 0 Z " fill="#D9F9FB" transform="translate(46,64)"/>
<path d="M0 0 C6.90831148 -0.12102151 6.90831148 -0.12102151 10.67578125 2.390625 C9.928125 2.32101563 9.18046875 2.25140625 8.41015625 2.1796875 C2.88015668 1.61438797 2.88015668 1.61438797 -1.9453125 3.7265625 C-3.17415434 5.54833602 -3.17415434 5.54833602 -4.32421875 8.390625 C-5.32421875 5.390625 -5.32421875 5.390625 -4.51171875 2.703125 C-2.32421875 0.390625 -2.32421875 0.390625 0 0 Z " fill="#5EBBC0" transform="translate(56.32421875,57.609375)"/>
<path d="M0 0 C0.33 0 0.66 0 1 0 C1.66 2.31 2.32 4.62 3 7 C5.64 7.66 8.28 8.32 11 9 C10.67 9.66 10.34 10.32 10 11 C6.05362526 10.43623218 3.16803189 9.4640248 0 7 C-0.875 4.4375 -0.875 4.4375 -1 2 C-0.67 1.34 -0.34 0.68 0 0 Z " fill="#64BFC1" transform="translate(29,37)"/>
<path d="M0 0 C0.33 0 0.66 0 1 0 C1 3.63 1 7.26 1 11 C1.99 11.33 2.98 11.66 4 12 C3.01 12.33 2.02 12.66 1 13 C0.67 14.65 0.34 16.3 0 18 C-0.33 18 -0.66 18 -1 18 C-0.505 9.09 -0.505 9.09 0 0 Z " fill="#ECFDFE" transform="translate(58,12)"/>
<path d="M0 0 C1.32 0.33 2.64 0.66 4 1 C4.66 0.67 5.32 0.34 6 0 C5.67 1.98 5.34 3.96 5 6 C5.99 6.33 6.98 6.66 8 7 C7.01 7.66 6.02 8.32 5 9 C3.35 6.03 1.7 3.06 0 0 Z " fill="#E4FAFB" transform="translate(74,42)"/>
<path d="M0 0 C1.69141656 0.08963062 3.37959602 0.24577676 5.0625 0.4375 C6.44115234 0.59025391 6.44115234 0.59025391 7.84765625 0.74609375 C8.55792969 0.82988281 9.26820312 0.91367187 10 1 C10.33 1.99 10.66 2.98 11 4 C9.56163249 3.88541307 8.12429034 3.75790884 6.6875 3.625 C5.88699219 3.55539063 5.08648437 3.48578125 4.26171875 3.4140625 C2 3 2 3 -1 1 C-0.67 0.67 -0.34 0.34 0 0 Z " fill="#F6FEFE" transform="translate(62,55)"/>
<path d="M0 0 C0.99 0.66 1.98 1.32 3 2 C1.625 3.5 1.625 3.5 0 5 C-0.66 5 -1.32 5 -2 5 C-2.33 6.98 -2.66 8.96 -3 11 C-3.99 10.67 -4.98 10.34 -6 10 C-4.02 6.7 -2.04 3.4 0 0 Z " fill="#5BBBC0" transform="translate(22,51)"/>
<path d="M0 0 C0.6875 1.75 0.6875 1.75 1 4 C0.00692179 5.33849671 -0.99357052 6.67151309 -2 8 C-2.25124826 10.66761764 -2.25124826 10.66761764 -2 13 C-2.99 13 -3.98 13 -5 13 C-4.48474397 7.71862571 -2.74522883 4.42778844 0 0 Z " fill="#6ABDC1" transform="translate(13,66)"/>
<path d="M0 0 C1 4 1 4 -0.21484375 6.359375 C-0.78332031 7.14828125 -1.35179687 7.9371875 -1.9375 8.75 C-2.50339844 9.54921875 -3.06929687 10.3484375 -3.65234375 11.171875 C-4.09707031 11.77515625 -4.54179688 12.3784375 -5 13 C-5.66 12.67 -6.32 12.34 -7 12 C-4.69 8.04 -2.38 4.08 0 0 Z " fill="#65BFC1" transform="translate(40,18)"/>
<path d="M0 0 C3.63 0 7.26 0 11 0 C11 0.99 11 1.98 11 3 C9.35333797 2.8864371 7.70763918 2.75882619 6.0625 2.625 C5.14597656 2.55539063 4.22945313 2.48578125 3.28515625 2.4140625 C2.15400391 2.20910156 2.15400391 2.20910156 1 2 C0.67 1.34 0.34 0.68 0 0 Z " fill="#DFDFDF" transform="translate(66,94)"/>
<path d="M0 0 C1 2 1 2 0.44140625 4.1640625 C0.15136719 4.97617187 -0.13867188 5.78828125 -0.4375 6.625 C-0.72496094 7.44226563 -1.01242188 8.25953125 -1.30859375 9.1015625 C-1.53675781 9.72804688 -1.76492187 10.35453125 -2 11 C-2.33 11 -2.66 11 -3 11 C-3.08096803 9.54257537 -3.13917774 8.08387193 -3.1875 6.625 C-3.22230469 5.81289063 -3.25710937 5.00078125 -3.29296875 4.1640625 C-3.19628906 3.44992188 -3.09960938 2.73578125 -3 2 C-2.01 1.34 -1.02 0.68 0 0 Z " fill="#63BBC4" transform="translate(56,24)"/>
<path d="M0 0 C3.33727786 1.17255709 5.77437487 2.18868404 8 5 C8 5.66 8 6.32 8 7 C4.95139986 5.98379995 4.13333078 5.22608429 2 3 C1.34 2.67 0.68 2.34 0 2 C0 1.34 0 0.68 0 0 Z " fill="#67BABF" transform="translate(82,65)"/>
</svg>
